<ttFont>
<head>
    <!-- Most of this table will be recalculated by the compiler -->
    <tableVersion value="1.0"/>
    <fontRevision value="1.0"/>
    <checkSumAdjustment value="0x1bffa288"/>
    <magicNumber value="0x5f0f3cf5"/>
    <flags value="00000000 00000011"/>
    <unitsPerEm value="1000"/>
    <created value="Tue Feb  2 15:27:39 2016"/>
    <modified value="Tue Feb  2 15:27:39 2016"/>
    <xMin value="-607"/>
    <yMin value="-915"/>
    <xMax value="1943"/>
    <yMax value="1635"/>
    <macStyle value="00000000 00000000"/>
    <lowestRecPPEM value="3"/>
    <fontDirectionHint value="2"/>
    <indexToLocFormat value="0"/>
    <glyphDataFormat value="0"/>
  </head>
          <CharString index="0">
            hlineto
            -25 -11 -11 -25 hvcurveto
            return
          </CharString>
          <CharString index="1">
            25 -11 11 -25 vhcurveto
            return
          </CharString>
          <CharString index="2">
            hlineto
            -106 callgsubr
            return
          </CharString>
          <CharString index="3">
            -75 42 -50 149 149 44 12 callgsubr
            -44 50 -149 -149 -42 -50 -75 vhcurveto
            109 -282 rmoveto
            269 vlineto
            26 12 20 72 73 11 -20 -26 vhcurveto
            -269 vlineto
            -27 -11 -20 -73 -72 195 callsubr
            return
          </CharString>
          <CharString index="4">
            -25 11 -92 callgsubr
            return
          </CharString>
          <CharString index="5">
            36 -8 4 -34 13 vhcurveto
            -137 50 rlineto
            4 -10 -10 1 -12 hhcurveto
            -12 -1 -15 -3 -12 -5 -128 -46 rcurveline
            return
          </CharString>
          <CharString index="6">
            rmoveto
            25 3 11 8 25 vvcurveto
            96 vlineto
            23 -11 13 -23 -3 vhcurveto
            22 callsubr
            return
          </CharString>
          <CharString index="7">
            -73 vlineto
            -13 6 -6 13 vhcurveto
            129 hlineto
            11 0 8 -4 0 -10 0 -12 -6 -3 -2 flex1
            -89 -14 -13 -2 -6 -6 2 -13 rlinecurve
            11 -79 2 -13 5 -5 13 2 rlinecurve
            25 57 rmoveto
            -1 10 96 14 rlineto
            20 3 13 11 28 vvcurveto
            50 vlineto
            31 -20 8 -20 vhcurveto
            -136 10 hlineto
            return
          </CharString>
          <CharString index="8">
            -87 -28 rlineto
            11 vlineto
            83 27 rlineto
            12 3 9 3 15 15 9 -3 12 hflex1
            return
          </CharString>
          <CharString index="9">
            -138 hlineto
            -23 -11 -10 -23 152 callsubr
            -23 11 -10 23 vhcurveto
            396 hmoveto
            -93 callgsubr
            return
          </CharString>
          <CharString index="10">
            -107 callsubr
            -64 callgsubr
            return
          </CharString>
          <CharString index="11">
            -52 callsubr
            -12 -20 -71 -70 -69 callgsubr
            return
          </CharString>
          <CharString index="12">
            -36 8 -4 34 -13 vhcurveto
            137 -50 rlineto
            -4 10 10 -1 12 hhcurveto
            12 1 15 3 12 5 128 46 rcurveline
            return
          </CharString>
          <CharString index="13">
            rmoveto
            -106 callgsubr
            return
          </CharString>
          <CharString index="14">
            -94 callsubr
            127 -107 callgsubr
            return
          </CharString>
          <CharString index="15">
            -138 hlineto
            -23 -10 -10 -23 152 callsubr
            -23 10 -10 23 vhcurveto
            -184 70 14 callgsubr
            return
          </CharString>
          <CharString index="16">
            -154 -107 callsubr
            -386 vlineto
            -43 0 -32 18 -49 vhcurveto
            50 -138 rlineto
            -21 7 15 -15 22 hhcurveto
            132 hlineto
            21 15 10 20 6 hvcurveto
            47 163 rlineto
            13 4 6 4 8 hhcurveto
            9 hlineto
            8 6 -4 -13 4 hvcurveto
            46 -163 rlineto
            -21 6 18 -9 22 hhcurveto
            133 hlineto
            21 12 16 20 7 hvcurveto
            50 136 rlineto
            18 49 0 32 43 vvcurveto
            388 -107 callgsubr
            return
          </CharString>
          <CharString index="17">
            -85 callsubr
            hintmask 000000010000010010000000
            -102 callsubr
            hintmask 000000100000010010000000
            -103 callgsubr
            hintmask 000000010000010010000000
            -99 callsubr
            hintmask 000000101000000010000000
            162 callgsubr
            hintmask 000000000010000010000000
            -74 callgsubr
            hintmask 000000000001010000000000
            -79 callgsubr
            hintmask 000000000100010000000000
            -74 callsubr
            hintmask 000000000010000010000000
            147 73 rmoveto
            -10 vlineto
            hintmask 000000001000100000000000
            -27 -3 -26 3 -51 8 rrcurveto
            hintmask 000000000100010000000000
            -62 callgsubr
            hintmask 000000000010000001000000
            -47 callsubr
            hintmask 000000000010000010000000
            72 callgsubr
          </CharString>
          <CharString index="18">
            117 -107 callgsubr
            return
          </CharString>
          <CharString index="19">
            87 28 rlineto
            -11 vlineto
            -83 -27 rlineto
            -12 -3 -9 -3 -15 -15 -9 3 -12 hflex1
            return
          </CharString>
          <CharString index="20">
            103 0 90 10 89 76 84 10 85 85 597 callgsubr
            20 90 -31 107 10 107 -13 90 92 146 callgsubr
            hintmask 1010010100010000
            452 260 callgsubr
            312 vlineto
            121 -57 83 -189 vhcurveto
            -337 -107 callsubr
            hintmask 1011010100010000
            -240 vlineto
            hintmask 1011011000010000
            -23 -107 callsubr
            hintmask 1010011000010000
            -107 -6 callgsubr
            hintmask 1010010100010000
            23 -229 hlineto
            332 callgsubr
            259 vlineto
            hintmask 1010011000010000
            -76 10 hlineto
            hintmask 1011010100010000
            76 271 244 163 callsubr
            -140 259 rmoveto
            hintmask 1110110110110000
            -94 -249 234 hlineto
            128 22 53 73 hvcurveto
            265 vlineto
            73 -24 56 -126 vhcurveto
            -234 hlineto
            hintmask 1011010110010000
            -261 vlineto
            hintmask 1011010101010000
            94 hlineto
            hintmask 1110010110010000
            13 -170 rmoveto
            76 572 callsubr
            41 104 callgsubr
            hintmask 1011010101010000
            107 -73 callsubr
            hintmask 1111110110110000
            -41 85 122 400 callgsubr
            -243 400 callsubr
            endchar
          </CharString>
          <CharString index="21">
            -295 vlineto
            -30 0 -46 -5 -25 vhcurveto
            -25 -113 rlineto
            -22 -5 -12 -9 -16 hhcurveto
            -7 hlineto
            -12 -15 3 14 -6 hvcurveto
            -82 186 rlineto
            36 -16 -9 6 -16 hhcurveto
            -45 hlineto
            -16 -9 -6 -36 -16 hvcurveto
            -82 -186 rlineto
            -14 -6 -15 -3 -12 hhcurveto
            -7 hlineto
            -16 -12 9 22 -5 hvcurveto
            -25 113 rlineto
            -5 25 0 46 30 vvcurveto
            295 10 vlineto
            return
          </CharString>
          <CharString index="22">
            rmoveto
            23 6 16 0 23 -6 137 -40 rcurveline
            35 -11 7 6 10 callgsubr
            return
          </CharString>
          <CharString index="23">
            -70 callsubr
            hintmask 0000001000100000
            -27 -3 -26 3 -51 8 rrcurveto
            hintmask 0000000100010000
            -62 callgsubr
            hintmask 0000000010000001
            -47 callsubr
            hintmask 0000000010000010
            72 callgsubr
          </CharString>
          <CharString index="24">
            107 -60 97 -27 107 hintmask 1011100101000100
            -44 callsubr
            hintmask 0110001000010000
            18 callgsubr
            hintmask 1011100101000100
            248 61 348 callgsubr
            -508 441 rmoveto
            10 hlineto
            hintmask 0110001000010000
            -84 callgsubr
            10 vlineto
            hintmask 1001100100000100
            -55 callsubr
            137 547 rmoveto
            -93 callgsubr
            hintmask 0001010000001000
            -98 callsubr
            hintmask 0001000101000000
            -92 callsubr
            hintmask 0001010000001000
            -20 callgsubr
            return
          </CharString>
          <CharString index="25">
            rmoveto
            -22 -6 16 -12 23 hhcurveto
            106 hlineto
            25 5 12 24 6 hvcurveto
            53 207 rlineto
            22 6 -16 12 -23 hhcurveto
            -106 hlineto
            -25 -5 -12 -24 -6 hvcurveto
            207 -207 rmoveto
            -22 -6 16 -12 23 hhcurveto
            106 hlineto
            25 5 12 24 6 hvcurveto
            53 207 rlineto
            22 6 -16 12 -23 hhcurveto
            -106 hlineto
            -25 -5 -12 -24 -6 hvcurveto
            54 -151 rmoveto
            -11 hlineto
            25 97 rlineto
            11 hlineto
            -285 -97 rmoveto
            -11 hlineto
            25 97 598 callsubr
          </CharString>
          <CharString index="26">
            405 313 callsubr
            -289 218 hlineto
            83 21 41 74 hvcurveto
            70 vlineto
            279 callsubr
            -110 -80 rmoveto
            75 hlineto
            35 9 -20 -27 hvcurveto
            -34 vlineto
            -27 -9 -20 -35 vhcurveto
            -75 hlineto
            -108 -322 14 callgsubr
            return
          </CharString>
          <CharString index="27">
            121 -107 callgsubr
            -250 hlineto
            -168 -78 -65 -139 hvcurveto
            -312 vlineto
            -139 78 -65 168 23 callgsubr
            173 -10 hlineto
            return
          </CharString>
          <CharString index="28">
            rmoveto
            38 callgsubr
            hintmask 0111111101000000
            185 callgsubr
            397 hmoveto
            38 callgsubr
            hintmask 0111101111000000
            185 callgsubr
            155 270 rmoveto
            -119 vlineto
            -61 -34 -30 -54 vhcurveto
            -46 10 hlineto
            hintmask 0111101111000000
            46 hlineto
            48 30 27 54 hvcurveto
            109 -124 10 vlineto
            hintmask 1101101101000000
            -186 hmoveto
            -119 vlineto
            -61 -34 -30 -54 vhcurveto
            -46 10 hlineto
            hintmask 0111111101000000
            110 callgsubr
          </CharString>
          <CharString index="29">
            86 callgsubr
            -194 222 rlineto
            20 -17 -16 7 -26 hhcurveto
            -104 -99 callgsubr
            return
          </CharString>
          <CharString index="30">
            -43 callgsubr
            61 -82 248 248 61 388 callsubr
            -508 441 rmoveto
            10 hlineto
            return
          </CharString>
          <CharString index="31">
            -38 -21 -42 -124 -124 -16 42 38 vhcurveto
            9 10 -9 vlineto
            return
          </CharString>
          <CharString index="32">
            -49 callgsubr
            34 157 callsubr
            182 51 10 50 395 callsubr
            -54 50 98 78 -56 507 callsubr
            -69 59 -41 73 -12 106 hintmask 100110000000010000100000
            -105 callgsubr
            hintmask 010000000000010000100000
            169 callgsubr
            hintmask 100000000000010000000000
            234 callsubr
            hintmask 100001000001000000000100
            -100 callgsubr
            vlineto
            hintmask 010000000000010000000000
            249 callsubr
            hintmask 001000000000010000100000
            151 callsubr
            hintmask 010000000000000000100000
            4 callgsubr
            hintmask 010001000001000000000100
            151 -102 callgsubr
            hintmask 010000000000010000000000
            147 -105 callsubr
            hintmask 000000101000000000001000
            79 callgsubr
            hintmask 000000010000100000001000
            -50 callsubr
            hintmask 000000101000100000000000
            -90 callgsubr
            vhcurveto
            hintmask 000000101000000000001000
            111 callgsubr
            hintmask 000000001000000001000000
            98 callgsubr
            hintmask 000000100000100000001000
            -76 callsubr
            hintmask 000000010000001001000000
            -50 callgsubr
            hintmask 000000000010000100010000
            -30 119 -38 callsubr
            hintmask 000000000100000110000000
            -100 callsubr
            hintmask 000000000010000000010000
            -53 callsubr
          </CharString>
          <CharString index="33">
            -101 vlineto
            -25 12 -8 24 7 vhcurveto
            53 16 16 4 76 -11 rrcurveto
            return
          </CharString>
          <CharString index="34">
            -54 callgsubr
            vhcurveto
            return
          </CharString>
          <CharString index="35">
            -222 hlineto
            -56 -36 -34 -47 hvcurveto
            -82 vlineto
            -47 20 -14 31 -6 vhcurveto
            211 -43 rlineto
            40 -8 29 -20 -70 vvcurveto
            -58 vlineto
            -59 -43 -42 -68 vhcurveto
            return
          </CharString>
          <CharString index="36">
            113 callgsubr
            127 vlineto
            152 206 333 callsubr
            20 62 116 callsubr
            return
          </CharString>
          <CharString index="37">
            34 callsubr
            hintmask 0000000010000010
            -74 callgsubr
            hintmask 0000000001010000
            -79 callgsubr
            hintmask 0000000100010000
            -74 callsubr
            hintmask 0000000010000010
            147 73 rmoveto
            -10 vlineto
            return
          </CharString>
          <CharString index="38">
            134 vlineto
            66 -35 32 -76 vhcurveto
            -283 hlineto
            72 -322 -94 callsubr
            196 140 82 callgsubr
            return
          </CharString>
          <CharString index="39">
            230 callgsubr
            34 64 10 64 15 70 395 callsubr
            -59 70 callsubr
            -55 507 callsubr
            -51 73 -12 106 hintmask 010011000000100001000000
            -105 callgsubr
            hintmask 001000000000100001000000
            169 callgsubr
            573 callgsubr
            234 callsubr
            hintmask 010000100010000000010000
            -100 callgsubr
            vlineto
            hintmask 001000000000100000000000
            249 callsubr
            hintmask 000100000000100001000000
            151 callsubr
            hintmask 001000000000000001000000
            4 callgsubr
            hintmask 001000100010000000010000
            151 -102 callgsubr
            hintmask 001000000000100000000000
            147 -105 callsubr
            hintmask 000000010100000000100000
            79 callgsubr
            hintmask 000000001001000000100000
            -50 callsubr
            hintmask 000000010101000000000000
            -90 callgsubr
            vhcurveto
            hintmask 000000010100000000100000
            111 callgsubr
            hintmask 000000000100000010000000
            98 callgsubr
            hintmask 000000010001000000100000
            -76 callsubr
            hintmask 000000001000010010000000
            -50 callgsubr
            hintmask 100000000000000100000000
            -55 -1138 -93 callsubr
            hintmask 100000000000001000000000
            -158 -107 callsubr
            -127 -104 callgsubr
            hintmask 100000000000000100000000
            84 70 14 callgsubr
            hintmask 100000000000001000000000
            202 callsubr
          </CharString>
          <CharString index="40">
            130 callgsubr
            358 callgsubr
            60 146 callgsubr
            -81 593 callsubr
            -74 105 10 106 hintmask 1011101000010000
            439 345 rmoveto
            21 11 -9 -38 17 hvcurveto
            hintmask 1011101000110000
            82 -184 rlineto
            -14 6 11 41 callgsubr
            hintmask 1111101000010000
            -86 callsubr
            hintmask 1111101100010000
            30 callsubr
            hintmask 1011101100110000
            -66 callsubr
            hintmask 1111101000010000
            -91 callsubr
            -352 77 9 callsubr
            hintmask 1011111100110000
            137 -40 rlineto
            35 -11 7 6 36 vvcurveto
            81 vlineto
            -102 callsubr
            hintmask 1011101101010000
            -32 -13 -9 -4 109 callgsubr
            7 -6 34 11 vhcurveto
            287 93 rmoveto
            -87 28 rlineto
            hintmask 1011101010010000
            -10 3 -9 3 -13 -13 -9 -3 -10 hflex1
            hintmask 1011111011010000
            -99 callsubr
            hintmask 1011101001010000
            255 callgsubr
          </CharString>
          <CharString index="41">
            82 184 rlineto
            38 17 11 9 21 hhcurveto
            192 375 rmoveto
            70 callgsubr
            -368 vlineto
            -58 126 rlineto
            23 -11 -16 8 -26 hhcurveto
            -42 538 callsubr
            -23 -11 hvcurveto
            -58 -126 rlineto
            227 callgsubr
            return
          </CharString>
          <CharString index="42">
            -49 callgsubr
            34 64 10 64 15 70 277 callsubr
            -60 59 -38 75 50 61 5 507 callsubr
            -51 73 -12 106 hintmask 100110000001000010000000
            -105 callgsubr
            hintmask 010000000001000010000000
            300 callgsubr
            hintmask 100001000100000000100000
            -100 callgsubr
            vlineto
            319 callgsubr
            249 callsubr
            hintmask 001000000001000010000000
            151 callsubr
            505 callsubr
            4 callgsubr
            hintmask 010001000100000000100000
            151 -102 callgsubr
            319 callgsubr
            147 hlineto
            25 11 11 25 hvcurveto
            hintmask 000000101000000001000000
            79 callgsubr
            hintmask 000000010010000001000000
            -14 callgsubr
            hintmask 000000101000000001000000
            111 callgsubr
            hintmask 000000001000000100000000
            98 callgsubr
            hintmask 000000100010000001000000
            -76 callsubr
            hintmask 000000010000010100000000
            -50 callgsubr
            hintmask 000000001000101000000000
            -252 304 79 callsubr
            -31 callgsubr
          </CharString>
          <CharString index="43">
            136 callsubr
            hintmask 01111010
            174 callsubr
            hintmask 01111110
            44 callgsubr
            hintmask 11011010
            208 callsubr
            155 270 rmoveto
            -119 vlineto
            -61 -34 -30 -54 vhcurveto
            -46 10 hlineto
            hintmask 01111110
            110 callgsubr
          </CharString>
          <CharString index="44">
            -34 vlineto
            -22 9 -9 21 vhcurveto
            134 230 rmoveto
            -97 vlineto
            -61 -29 -25 -54 vhcurveto
            -35 10 hlineto
            return
          </CharString>
          <CharString index="45">
            -155 -107 callsubr
            return
          </CharString>
          <CharString index="46">
            -157 303 callgsubr
            return
          </CharString>
          <CharString index="47">
            315 callsubr
            28 562 callsubr
            -41 90 -39 109 168 90 -90 107 0 80 -70 109 -29 87 hintmask 100010100100000100000000
            369 -15 rmoveto
            250 60 348 callgsubr
            341 vlineto
            26 -3 24 -7 23 vhcurveto
            hintmask 000001000000000010000000
            52 24 16 42 52 vvcurveto
            -37 callgsubr
            hintmask 000101000000001000000000
            -111 hlineto
            -23 -7 -7 -24 hvcurveto
            -21 vlineto
            -18 -7 -10 -30 -1 vhcurveto
            hintmask 000010000100000000000000
            10 -41 -50 5 -63 hhcurveto
            -250 -61 -83 -122 hvcurveto
            -341 vlineto
            hintmask 100010100100000100000000
            379 callsubr
            -2 92 rmoveto
            -157 -44 54 81 hvcurveto
            295 vlineto
            382 callgsubr
            63 44 -9 -15 32 vhcurveto
            hintmask 000100000000001000000000
            93 41 52 54 hvcurveto
            9 10 -9 vlineto
            hintmask 000100000000000010000000
            -52 -31 -57 -97 -6 vhcurveto
            hintmask 100000000000000100000000
            35 -24 13 -35 -43 vvcurveto
            -295 vlineto
            hintmask 100010100100000100000000
            356 callgsubr
            vhcurveto
            hintmask 011001000001010000000000
            -191 430 rmoveto
            -295 vlineto
            -104 callsubr
            49 549 rmoveto
            16 -2 rlineto
            hintmask 000001000000100000000000
            55 callsubr
            hintmask 000000010000100000000000
            -74 callgsubr
            hintmask 000000001010000000000000
            -79 callgsubr
            hintmask 000000100010000000000000
            -74 callsubr
            hintmask 000000010000100000000000
            147 73 rmoveto
            -10 vlineto
            hintmask 000001000100000000000000
            -27 -3 -26 3 -51 8 rrcurveto
            hintmask 000000100010000000000000
            -62 callgsubr
            hintmask 000000010000000100000000
            -47 callsubr
            hintmask 000000010000100000000000
            72 callgsubr
          </CharString>
          <CharString index="48">
            hlineto
            -40 -11 -26 -34 -13 hvcurveto
            -64 -164 rlineto
            return
          </CharString>
          <CharString index="49">
            495 -107 callgsubr
            return
          </CharString>
          <CharString index="50">
            -105 callsubr
            244 vlineto
            69 -10 15 -29 76 vhcurveto
            -87 207 rlineto
            25 -9 -15 8 -26 hhcurveto
            -259 538 callsubr
            -25 -9 hvcurveto
            -77 -207 rlineto
            -29 -76 -10 -15 -69 vvcurveto
            -244 vlineto
            -25 10 -11 26 vhcurveto
            return
          </CharString>
          <CharString index="51">
            442 hmoveto
            168 78 65 139 598 callgsubr
            139 -78 65 -168 vhcurveto
            -337 45 callsubr
            242 140 callgsubr
            return
          </CharString>
          <CharString index="52">
            -417 288 callgsubr
            324 callsubr
            vhcurveto
            return
          </CharString>
          <CharString index="53">
            315 callsubr
            -2 68 108 51 10 50 380 callsubr
            -60 50 98 78 2 107 -99 59 40 80 -70 109 -29 87 hintmask 100010011010010100000000
            369 -15 rmoveto
            250 60 348 callgsubr
            341 vlineto
            26 -3 24 -7 23 vhcurveto
            hintmask 000001000000000010000000
            52 24 16 42 52 vvcurveto
            -37 callgsubr
            hintmask 000001000000001000000000
            -111 hlineto
            -23 -7 -7 -24 hvcurveto
            hintmask 000100000000001000000000
            -21 vlineto
            -18 -7 -10 -30 -1 vhcurveto
            hintmask 000010001000000000000000
            10 -41 -50 5 -63 hhcurveto
            -250 -61 -83 -122 hvcurveto
            -341 vlineto
            hintmask 100010011010010100000000
            379 callsubr
            -2 92 rmoveto
            -157 -44 54 81 hvcurveto
            295 vlineto
            382 callgsubr
            63 44 -9 -15 32 vhcurveto
            hintmask 000100000000001000000000
            93 41 52 54 hvcurveto
            9 10 -9 vlineto
            hintmask 000100000000000010000000
            -52 -31 -57 -97 -6 vhcurveto
            hintmask 100000000000000100000000
            35 -24 13 -35 -43 vvcurveto
            -295 vlineto
            hintmask 100010011010010100000000
            356 callgsubr
            vhcurveto
            hintmask 011000000100100000000000
            -191 430 rmoveto
            -295 vlineto
            -104 callsubr
            hintmask 000000010010010000000000
            154 542 -38 callsubr
            hintmask 000000100011000000000000
            -100 callsubr
            hintmask 000000010000010000000000
            -53 callsubr
          </CharString>
          <CharString index="54">
            136 hlineto
            25 25 -10 -39 hvcurveto
            -50 vlineto
            -38 -20 -10 -21 -3 vhcurveto
            endchar
          </CharString>
          <CharString index="55">
            -1 callsubr
            -456 vlineto
            -27 return
          </CharString>
          <CharString index="56">
            -50 90 hintmask 1001101010010000
            89 hmoveto
            hintmask 1001101011010000
            99 callsubr
            hintmask 1111101011010000
            58 callsubr
            336 97 -105 callsubr
            hintmask 1001101011010000
            121 -107 callgsubr
            hintmask 1001101010010000
            -426 -107 callsubr
            hintmask 1111101010010000
            -121 -104 callgsubr
            99 -336 -99 -107 callsubr
            hintmask 1001101010010000
            -119 -104 callgsubr
            372 90 rmoveto
            -318 10 hlineto
            hintmask 1111101010010000
            155 520 -155 10 hlineto
            hintmask 1001101010010000
            318 -10 hlineto
            hintmask 1111101011010000
            -153 -520 153 hlineto
            return
          </CharString>
          <CharString index="57">
            -21 vlineto
            -19 -9 -14 -50 -49 -8 14 19 vhcurveto
            return
          </CharString>
          <CharString index="58">
            119 -107 callgsubr
            -280 33 callsubr
            return
          </CharString>
          <CharString index="59">
            77 0 90 -90 262 220 callsubr
            169 93 10 return
          </CharString>
          <CharString index="60">
            23 3 24 -2 45 -6 28 -4 rcurveline
            16 -2 rlineto
            return
          </CharString>
          <CharString index="61">
            -74 callsubr
            hintmask 1010010100010000
            147 73 rmoveto
            -10 vlineto
            hintmask 1011000100001000
            -27 -3 -26 3 -51 8 rrcurveto
            hintmask 1010100010001000
            -62 callgsubr
            hintmask 1010010100001000
            -47 callsubr
            hintmask 1010010100010000
            75 callsubr
            return
          </CharString>
          <CharString index="62">
            449 callgsubr
            81 77 10 89 217 callgsubr
            -81 70 callsubr
            -8 535 callsubr
            hintmask 110100110100100010000000
            569 -88 callgsubr
            hintmask 001000000100000010000000
            -89 callsubr
            hintmask 001100000001000000000000
            -276 86 hlineto
            hintmask 000100000100000000000000
            195 -105 callsubr
            hintmask 000010000100000000000000
            107 -107 callgsubr
            hintmask 000011000001000000000000
            -195 77 hlineto
            hintmask 000001000100000000000000
            276 -105 callsubr
            hintmask 010000100100000000000000
            -89 callsubr
            -464 -99 callgsubr
            hintmask 001000000000000010000000
            410 100 rmoveto
            -10 vlineto
            hintmask 010000100100000010000000
            59 callsubr
            hintmask 000011000001001000000000
            52 callsubr
            hintmask 001100010001000100000000
            189 callsubr
            117 176 callsubr
            hintmask 000000001010000100000000
            -102 callsubr
            hintmask 000000010010000100000000
            -103 callgsubr
            hintmask 000000001010000100000000
            -99 callsubr
            hintmask 000000010000000100000000
            83 -27 rlineto
            hintmask 100000000000010000000000
            -49 264 callsubr
            459 callgsubr
            -158 -107 callsubr
            -127 -104 callgsubr
            hintmask 100000000000010000000000
            84 70 14 callgsubr
            459 callgsubr
            202 callsubr
          </CharString>
          <CharString index="63">
            682 -24 callsubr
            return
          </CharString>
          <CharString index="64">
            93 558 callsubr
            69 498 callsubr
            188 90 14 callgsubr
            hintmask 11011001
            389 callgsubr
            hintmask 11111101
            -266 217 153 callsubr
            hintmask 11011111
            280 callsubr
            hintmask 11111101
            242 callgsubr
            282 vlineto
            80 -48 52 -75 4 vhcurveto
            102 233 rlineto
            21 9 -8 12 -23 hhcurveto
            -154 hlineto
            -26 -14 -9 -24 -10 hvcurveto
            -103 -233 rlineto
            -40 230 225 callsubr
            hintmask 11011001
            -155 -99 callgsubr
            endchar
          </CharString>
          <CharString index="65">
            -3 -362 47 10 38 37 88 10 89 43 426 callsubr
            57 66 42 -2 109 -97 57 33 90 -73 109 hintmask 100110010101001010000000
            106 callsubr
            hintmask 100110110110001010000000
            -30 callsubr
            hintmask 100110110101001100000000
            233 -105 callsubr
            hintmask 100111010101001100000000
            -49 callsubr
            hintmask 100111011001010010000000
            -36 callgsubr
            hintmask 100110011001001100000000
            68 callgsubr
            hintmask 100110110110001010000000
            -72 callsubr
            hintmask 100110011001001010000000
            -249 10 hlineto
            hintmask 100111010101010010000000
            -72 callgsubr
            64 -992 rmoveto
            hintmask 100110010101001010000000
            -55 callgsubr
            hintmask 111110010101101010000000
            -67 callgsubr
            hintmask 100110010101001010000000
            -63 callsubr
            hintmask 111110010101101010000000
            13 callgsubr
          </CharString>
          <CharString index="66">
            -107 callsubr
            -608 -104 callgsubr
            return
          </CharString>
          <CharString index="67">
            rmoveto
            -31 369 31 vlineto
            36 -6 30 -10 27 vhcurveto
            -59 143 rlineto
            35 -15 -21 345 callgsubr
            -21 -26 -34 -13 hvcurveto
            -54 -144 rlineto
            59 callgsubr
            163 187 120 callgsubr
            -132 578 callsubr
            253 -248 rmoveto
            return
          </CharString>
          <CharString index="68">
            309 callgsubr
            25 11 11 25 hvcurveto
            -322 54 rmoveto
            5 callsubr
            return
          </CharString>
          <CharString index="69">
            rmoveto
            50 7 31 21 59 vvcurveto
            64 vlineto
            67 -40 35 -68 vhcurveto
            -168 hlineto
            -13 -6 -6 -13 hvcurveto
            return
          </CharString>
          <CharString index="70">
            252 callsubr
            217 callgsubr
            86 59 -4 535 callsubr
            -80 61 hintmask 1010011010010010
            569 -88 callgsubr
            hintmask 0100000010000010
            -89 callsubr
            hintmask 0110000000100000
            -276 86 hlineto
            hintmask 0010000010000000
            195 -105 callsubr
            hintmask 0001000010000000
            107 -107 callgsubr
            hintmask 0001100000100000
            -195 77 hlineto
            hintmask 0000100010000000
            276 -105 callsubr
            hintmask 1000010010000000
            298 callsubr
            hintmask 1000010010000010
            59 callsubr
            hintmask 0001100000101000
            52 callsubr
            hintmask 0110001000100100
            189 callsubr
            117 697 113 callsubr
            hintmask 0000001000010001
            97 341 -78 callgsubr
          </CharString>
          <CharString index="71">
            84 0 90 167 420 callgsubr
            137 90 hstemhm
            60 107 10 107 169 107 10 107 hintmask 11011101
            177 135 rmoveto
            -45 -10 vlineto
            hintmask 11011001
            45 vlineto
            29 -1 26 16 22 vhcurveto
            120 164 -120 162 rlineto
            -15 21 0 555 callgsubr
            0 -26 14 -19 vhcurveto
            120 -162 rlineto
            119 hlineto
            116 162 rlineto
            13 19 1 26 28 vvcurveto
            15 10 vlineto
            hintmask 11011001
            -15 vlineto
            -29 0 -27 -15 -21 vhcurveto
            -118 -164 118 -162 rlineto
            15 -21 0 -27 -29 vvcurveto
            -45 -10 vlineto
            hintmask 11011111
            45 vlineto
            28 0 26 -14 19 vhcurveto
            -117 162 rlineto
            -120 hlineto
            -118 -162 rlineto
            hintmask 11011101
            -13 -18 -1 -27 -28 vvcurveto
            107 -99 rmoveto
            99 vlineto
            hintmask 11011111
            14 -1 14 10 14 vhcurveto
            45 63 rlineto
            12 8 5 5 11 hhcurveto
            14 hlineto
            11 5 -5 -12 8 hvcurveto
            44 -63 rlineto
            10 -14 -1 -14 -14 vvcurveto
            -99 374 callgsubr
            184 callsubr
            107 vlineto
            62 -7 20 -31 41 vhcurveto
            -81 108 81 110 333 callsubr
            20 62 vvcurveto
            77 328 callgsubr
            193 callsubr
            -69 vlineto
            -14 0 -15 -9 -13 vhcurveto
            -45 -63 rlineto
            -11 -8 -5 -6 -11 hhcurveto
            -12 hlineto
            -11 -6 6 11 -7 hvcurveto
            -44 63 rlineto
            -9 13 0 15 14 vvcurveto
            69 -107 callgsubr
            hintmask 11011001
            -154 -107 callsubr
            -77 vlineto
            -62 7 -20 31 -41 vhcurveto
            81 -109 -81 -109 rlineto
            -30 -41 -8 -20 -62 vvcurveto
            -107 -104 callgsubr
            hintmask 11011101
            184 callsubr
            endchar
          </CharString>
          <CharString index="72">
            36 rmoveto
            186 76 104 callsubr
            hintmask 1111100010000000
            107 -107 callgsubr
            -76 126 147 -105 callsubr
            hintmask 1100100010000000
            121 -107 callgsubr
            hintmask 1100100110000000
            -528 -107 callsubr
            hintmask 1111100110000000
            105 callgsubr
            -126 -77 -107 callsubr
            hintmask 1100100110000000
            -107 -104 callgsubr
            77 -186 157 callgsubr
            hintmask 1100100010000000
            162 -105 callsubr
            hintmask 1100100011000000
            22 270 rmoveto
            hintmask 1100100010000000
            -134 -216 -10 hlineto
            hintmask 1100100110000000
            216 vlineto
            hintmask 1100101010000000
            -135 10 hlineto
            hintmask 1111110110000000
            135 304 -205 10 hlineto
            hintmask 1100100010100000
            367 callgsubr
            hintmask 1111100010000000
            -205 -304 hlineto
            hintmask 1110100011000000
            134 hlineto
            endchar
          </CharString>
          <CharString index="73">
            rmoveto
            -25 -5 16 -11 25 hhcurveto
            115 hlineto
            25 6 11 25 5 hvcurveto
            120 648 rlineto
            25 5 -16 11 -25 hhcurveto
            -115 hlineto
            -25 -6 -11 -25 -5 hvcurveto
            124 callgsubr
          </CharString>
          <CharString index="74">
            196 237 callsubr
            41 90 157 128 10 125 120 90 hstemhm
            69 106 10 105 19 70 callsubr
            15 103 10 113 hintmask 1111110100100000
            421 385 rmoveto
            24 4 7 35 23 hvcurveto
            122 186 rlineto
            13 8 10 4 11 hhcurveto
            17 hlineto
            19 8 -9 -22 hvcurveto
            -509 -10 vlineto
            hintmask 1110111101100000
            509 vlineto
            11 -3 10 -14 vhcurveto
            -15 hlineto
            -9 -6 -1 -13 -8 hvcurveto
            -122 -184 rlineto
            -36 -24 -6 -11 -29 hhcurveto
            -29 -6 11 36 -24 hvcurveto
            -122 184 rlineto
            13 -8 -7 1 -9 hhcurveto
            -15 hlineto
            -14 -2 -10 -11 hvcurveto
            -509 -10 vlineto
            hintmask 1111110100100000
            509 vlineto
            22 8 9 18 vhcurveto
            17 hlineto
            11 11 -4 -13 8 hvcurveto
            122 -186 rlineto
            -35 23 4 -7 24 hhcurveto
            hintmask 1110111101100000
            -167 -385 -94 callsubr
            352 vlineto
            59 -109 rlineto
            -23 12 15 -9 26 hhcurveto
            40 hlineto
            26 15 9 23 12 hvcurveto
            59 109 rlineto
            -352 vlineto
            -25 10 -11 26 vhcurveto
            hintmask 1111110110100000
            154 -60 callgsubr
            -162 hlineto
            -21 -13 -8 -22 -12 hvcurveto
            -89 -163 rlineto
            -12 -7 -3 -5 -8 hhcurveto
            -9 hlineto
            -8 -3 5 12 -7 hvcurveto
            -90 163 rlineto
            22 -12 -13 8 -21 hhcurveto
            -161 -99 callgsubr
            398 191 callgsubr
            hintmask 1110110100100000
            -158 -107 callsubr
            -127 -104 callgsubr
            hintmask 1110110110100000
            84 70 14 callgsubr
            hintmask 1110110100100000
            202 callsubr
          </CharString>
          <CharString index="75">
            361 callsubr
            32 350 callsubr
            46 110 -92 90 -34 593 callsubr
            -49 106 -72 90 hintmask 1001011000010000
            578 -88 callgsubr
            hintmask 1101011000010000
            119 -107 callgsubr
            -239 hlineto
            hintmask 1001010100100000
            31 callgsubr
            hintmask 1011010100100000
            -121 -104 callgsubr
            214 hlineto
            hintmask 1001011000100000
            47 callsubr
            hintmask 1101011000010000
            -293 -376 rlineto
            -10 -12 -4 -6 -13 vvcurveto
            -14 vlineto
            -19 10 -4 11 vhcurveto
            337 -10 hlineto
            hintmask 1011011000100000
            -18 callgsubr
            hintmask 1011010100100000
            -305 10 hlineto
            hintmask 1001011000100000
            305 hlineto
            22 9 -10 -23 hvcurveto
            -16 vlineto
            -15 -7 -10 -10 -12 vhcurveto
            hintmask 1001010010100000
            -112 388 23 callsubr
            hintmask 1001110011000000
            -95 callsubr
            hintmask 1001010011000000
            -98 callgsubr
            endchar
          </CharString>
          <CharString index="76">
            100 500 callsubr
            69 105 -8 90 -72 107 171 107 -75 90 -5 105 hintmask 1101001000010000
            201 622 rmoveto
            hintmask 1101001001010000
            122 callgsubr
            hintmask 1101001000010000
            262 callsubr
            hintmask 1101001011010000
            -38 callgsubr
            hintmask 1101001000010000
            62 callgsubr
            hintmask 1101001011010000
            -46 callgsubr
            hintmask 1101001000010000
            150 -60 callgsubr
            hintmask 1110001001010000
            -78 callsubr
            270 764 rmoveto
            16 -2 rlineto
            hintmask 1110001000100000
            55 callsubr
            hintmask 1100101000100000
            -74 callgsubr
            hintmask 1101010100010000
            -79 callgsubr
            hintmask 1101000100010000
            -74 callsubr
            hintmask 1100101000100000
            147 73 rmoveto
            -10 vlineto
            hintmask 1110001000010000
            -27 -3 -26 3 -51 8 rrcurveto
            hintmask 1101000100010000
            -62 callgsubr
            hintmask 1100101000010000
            -47 callsubr
            hintmask 1100101000100000
            72 callgsubr
          </CharString>
          <CharString index="77">
            112 -62 40 -94 14 vhcurveto
            -149 20 rlineto
            -17 2 -10 12 18 vvcurveto
            18 10 12 17 vhcurveto
            return
          </CharString>
          <CharString index="78">
            60 -90 90 -15 93 10 83 309 90 hstemhm
            61 -7 callgsubr
            145 107 10 107 hintmask 10011101
            180 hmoveto
            -10 hlineto
            hintmask 01011001
            480 10 vlineto
            hintmask 01111111
            -267 526 callsubr
            42 50 75 vhcurveto
            267 10 vlineto
            hintmask 01011101
            -267 389 callsubr
            -147 -111 -50 31 50 -18 vhcurveto
            108 -213 rmoveto
            47 vlineto
            -5 26 30 -3 34 hhcurveto
            224 55 348 callgsubr
            345 -107 callgsubr
            hintmask 01111111
            -152 -1 callsubr
            -316 vlineto
            -27 -11 -20 -62 -61 -11 20 27 vhcurveto
            316 -107 callgsubr
            hintmask 10011001
            -62 callsubr
            -588 -104 callgsubr
            hintmask 10011101
            155 hlineto
            hintmask 01011101
            -106 callgsubr
            endchar
          </CharString>
          <CharString index="79">
            -105 callsubr
            264 vlineto
            return
          </CharString>
          <CharString index="80">
            94 237 callsubr
            26 406 callgsubr
            -31 70 callsubr
            -31 107 0 80 -70 109 -29 87 hintmask 0100010101000100
            369 -15 rmoveto
            250 60 348 callgsubr
            341 vlineto
            26 -3 24 -7 23 vhcurveto
            hintmask 0000001000000010
            52 24 16 42 52 vvcurveto
            -37 callgsubr
            hintmask 0000001000001000
            -111 hlineto
            -23 -7 -7 -24 hvcurveto
            hintmask 0000100000001000
            -21 vlineto
            -18 -7 -10 -30 -1 vhcurveto
            hintmask 0000010100000000
            10 -41 -50 5 -63 hhcurveto
            -250 -61 -83 -122 hvcurveto
            -341 vlineto
            hintmask 0100010101000100
            379 callsubr
            -2 92 rmoveto
            -157 -44 54 81 hvcurveto
            295 vlineto
            382 callgsubr
            63 44 -9 -15 32 vhcurveto
            hintmask 0000100000001000
            93 41 52 54 hvcurveto
            9 10 -9 vlineto
            hintmask 0000100000000010
            -52 -31 -57 -97 -6 vhcurveto
            hintmask 0100000000000100
            35 -24 13 -35 -43 vvcurveto
            -295 vlineto
            hintmask 0100010101000100
            356 callgsubr
            vhcurveto
            hintmask 0011000010010000
            -191 430 rmoveto
            -295 vlineto
            -104 callsubr
            hintmask 1000000000100000
            163 -465 -93 callsubr
            hintmask 1000000001000000
            -158 -107 callsubr
            -127 -104 callgsubr
            hintmask 1000000000100000
            84 70 14 callgsubr
            hintmask 1000000001000000
            202 callsubr
          </CharString>
          <CharString index="81">
            rmoveto
            -226 371 553 callgsubr
            -38 50 -149 317 callsubr
            99 -10 rmoveto
            27 12 20 71 70 12 -20 -27 vhcurveto
            -129 -165 vlineto
            272 -278 rmoveto
            return
          </CharString>
          <CharString index="82">
            hlineto
            -17 callgsubr
            return
          </CharString>
          <CharString index="83">
            189 8 callgsubr
            return
          </CharString>
          <CharString index="84">
            105 callgsubr
            193 callgsubr
            76 207 callsubr
            return
          </CharString>
          <CharString index="85">
            6 callgsubr
            233 callsubr
            69 109 -48 76 -18 105 -77 403 callgsubr
            -47 90 -33 73 -49 90 hintmask 101001101100100100000000
            569 -88 callgsubr
            hintmask 111001101100100100000000
            -89 callsubr
            551 callgsubr
            -276 86 hlineto
            hintmask 101001101100100100000000
            195 -105 callsubr
            hintmask 101101101100100100000000
            107 -107 callgsubr
            hintmask 101111101101000100000000
            -195 77 hlineto
            hintmask 101011101100100100000000
            276 -105 callsubr
            hintmask 101001101100100100000000
            -89 callsubr
            -464 -99 callgsubr
            hintmask 111001101100100010000000
            410 100 rmoveto
            -10 vlineto
            hintmask 101001101100100010000000
            59 callsubr
            hintmask 101111101101001000000000
            52 callsubr
            551 callgsubr
            189 callsubr
            376 797 -76 callgsubr
            hintmask 101001111010100100000000
            -50 callsubr
            hintmask 101001101010100100000000
            -90 callgsubr
            vhcurveto
            551 callgsubr
            111 callgsubr
            hintmask 101001101100110100000000
            98 callgsubr
            hintmask 101001101010100100000000
            -76 callsubr
            hintmask 101001111100110100000000
            -50 callgsubr
            endchar
          </CharString>
          <CharString index="86">
            193 vlineto
            37 6 31 11 29 vhcurveto
            54 144 rlineto
            37 14 23 29 46 hhcurveto
            77 hlineto
            44 22 -29 -38 16 hvcurveto
            59 -143 rlineto
            12 -30 5 -30 -37 vvcurveto
            -193 return
          </CharString>
          <CharString index="87">
            93 108 callsubr
            175 89 10 90 176 92 callsubr
            -39 357 callsubr
            -29 146 callgsubr
            hintmask 1001110111001010
            188 90 14 callgsubr
            hintmask 1001110110101010
            389 callgsubr
            hintmask 1001111111001010
            -266 217 153 callsubr
            hintmask 1001110111000110
            280 callsubr
            hintmask 1001111111001010
            242 callgsubr
            282 vlineto
            80 -48 52 -75 4 vhcurveto
            102 233 rlineto
            21 9 -8 12 -23 hhcurveto
            -154 hlineto
            -26 -14 -9 -24 -10 hvcurveto
            -103 -233 rlineto
            -40 230 225 callsubr
            hintmask 1001110110101010
            -155 -99 callgsubr
            259 360 callsubr
            hintmask 1111110110111010
            -67 callgsubr
            hintmask 1001110110101010
            -63 callsubr
            hintmask 1111110110111010
            13 callgsubr
          </CharString>
          <CharString index="88">
            124 0 90 10 89 351 92 10 93 hstemhm
            36 90 -48 -7 callgsubr
            -28 85 54 85 -28 237 callgsubr
            -48 90 hintmask 1001001001000000
            581 263 rmoveto
            244 vlineto
            hintmask 1011001001000000
            75 -43 50 -149 -149 -43 -50 -75 vhcurveto
            -244 vlineto
            -71 8 -33 68 -21 vhcurveto
            4 -1 rlineto
            hintmask 1001100101000000
            -47 -151 10 vlineto
            hintmask 1101001001000000
            141 29 hlineto
            hintmask 1101011001100000
            -70 23 -10 35 76 vvcurveto
            244 vlineto
            81 45 54 157 157 45 -54 -81 vhcurveto
            -244 vlineto
            -77 -10 -35 -70 -22 vhcurveto
            hintmask 1101001001010000
            -29 141 -10 vlineto
            hintmask 1001001010000000
            -151 47 hlineto
            4 1 rlineto
            hintmask 1001001001000000
            68 21 8 33 71 vvcurveto
            hintmask 1001000101000000
            -219 -227 rmoveto
            114 vlineto
            22 -8 5 -19 7 vhcurveto
            hintmask 1011001001000000
            -24 9 -6 13 19 vvcurveto
            269 vlineto
            26 12 20 72 72 12 -20 -26 vhcurveto
            -269 vlineto
            -19 -6 -13 -24 -9 vhcurveto
            hintmask 1001001010100000
            -19 -7 -8 -5 -22 vvcurveto
            -114 -104 callgsubr
            254 -105 callsubr
            hintmask 1101011001100000
            -89 callsubr
            -39 hlineto
            24 33 9 40 47 vvcurveto
            221 vlineto
            122 -61 83 -250 -250 -61 -83 -122 vhcurveto
            -221 vlineto
            -47 9 -40 24 -33 vhcurveto
            -39 -107 callsubr
            hintmask 1001010101000000
            -117 -104 callgsubr
            254 hlineto
            hintmask 1001000101000000
            -106 callgsubr
            endchar
          </CharString>
          <CharString index="89">
            -173 -27 callgsubr
            -280 418 callgsubr
            189 191 10 hlineto
            return
          </CharString>
          <CharString index="90">
            6 callgsubr
            189 51 10 50 366 callgsubr
            -98 50 98 78 10 59 -56 90 -9 90 hintmask 1010010110001000
            569 -88 callgsubr
            hintmask 1110010110001000
            -89 callsubr
            hintmask 1110010111001000
            -276 86 hlineto
            hintmask 1010010110001000
            195 -105 callsubr
            hintmask 1011010110001000
            107 -107 callgsubr
            hintmask 1011110111001000
            -195 77 hlineto
            hintmask 1010110110001000
            276 -105 callsubr
            hintmask 1010010110001000
            -89 callsubr
            -464 -99 callgsubr
            hintmask 1110010110001010
            410 100 rmoveto
            -10 vlineto
            hintmask 1010010110001010
            59 callsubr
            hintmask 1011110111000100
            52 callsubr
            hintmask 1110010111001000
            189 callsubr
            221 466 callsubr
            hintmask 1010010110101000
            -168 hlineto
            -13 -6 -6 -13 hvcurveto
            hintmask 1010011110111000
            -100 callsubr
            hintmask 1010010110001000
            -53 callsubr
          </CharString>
          <CharString index="91">
            90 58 49 102 hvcurveto
            188 -107 callgsubr
            -202 -107 callsubr
            return
          </CharString>
          <CharString index="92">
            84 -70 90 -35 92 10 81 382 82 10 93 -35 90 hstemhm
            58 98 10 99 208 97 10 99 hintmask 0011000110000000
            166 212 rmoveto
            -52 20 -41 67 -19 vhcurveto
            221 521 rlineto
            7 -28 -35 4 -44 hhcurveto
            -159 -42 -50 -75 hvcurveto
            201 -420 rmoveto
            159 44 50 75 hvcurveto
            295 vlineto
            52 -21 40 -66 19 vhcurveto
            -220 -521 rlineto
            -6 27 34 -4 43 hhcurveto
            -102 407 rmoveto
            32 14 24 90 vhcurveto
            12 hlineto
            -116 -273 rlineto
            104 -109 rmoveto
            -14 hlineto
            118 278 rlineto
            -221 vlineto
            -33 -13 -24 -91 vhcurveto
            hintmask 1000101000000000
            -139 -148 rmoveto
            -11 hlineto
            30 71 rlineto
            -71 20 -22 44 57 vvcurveto
            295 vlineto
            81 44 54 167 45 37 -4 -7 29 vhcurveto
            hintmask 0100010001000000
            29 69 rlineto
            11 hlineto
            -31 -72 rlineto
            71 -21 22 -44 -56 vvcurveto
            -295 vlineto
            -81 -46 -54 -167 -44 -36 4 7 -28 vhcurveto
            36 -122 rmoveto
            9 21 rlineto
            -1 20 22 -1 23 hhcurveto
            250 60 348 callgsubr
            341 vlineto
            68 -18 55 -59 36 vhcurveto
            27 65 rlineto
            22 12 -13 14 -25 hhcurveto
            -115 hlineto
            -25 -9 -14 -22 -12 hvcurveto
            hintmask 1000101000000000
            -9 -21 rlineto
            1 -20 -21 1 -23 hhcurveto
            -250 -61 -83 -122 hvcurveto
            -341 vlineto
            -67 19 -55 58 -36 vhcurveto
            -27 -65 rlineto
            -22 -12 13 -14 25 hhcurveto
            115 hlineto
            hintmask 0100010001000000
            25 9 14 22 12 hvcurveto
            endchar
          </CharString>
          <CharString index="93">
            0 -21 callgsubr
            return
          </CharString>
          <CharString index="94">
            132 callgsubr
            189 51 10 50 hstemhm
            53 90 12 50 -17 110 5 78 -73 110 -27 59 11 90 hintmask 1001011010010000
            89 hmoveto
            hintmask 1001011010100000
            99 callsubr
            hintmask 1111011010100000
            58 callsubr
            336 97 -105 callsubr
            hintmask 1001011010100000
            229 callgsubr
            hintmask 1001011010011000
            404 callsubr
            hintmask 1001011010011000
            318 -10 hlineto
            hintmask 1111011010101000
            -153 -520 153 hlineto
            hintmask 1001011100010000
            -92 667 -38 callsubr
            hintmask 1001111101010000
            -100 callsubr
            hintmask 1001011010010000
            -53 callsubr
          </CharString>
          <CharString index="95">
            93 69 callgsubr
            34 344 callgsubr
            64 110 -18 76 -48 109 -51 75 116 73 -48 107 -49 74 -15 107 hintmask 1011001100110010
            -44 callsubr
            hintmask 0110000001001000
            -152 -96 callsubr
            hintmask 1010000100000000
            -43 callgsubr
            61 -82 248 vhcurveto
            hintmask 1011001100110010
            248 61 348 callgsubr
            -508 441 rmoveto
            10 hlineto
            hintmask 0110000001001000
            -84 callgsubr
            10 vlineto
            hintmask 1000000100000010
            -55 callsubr
            hintmask 0001001010000100
            416 782 34 callgsubr
            hintmask 0000110000110000
            39 callgsubr
          </CharString>
          <CharString index="96">
            6 callgsubr
            32 350 callsubr
            69 109 -44 90 -36 105 141 90 -62 91 -38 90 hintmask 1010010110000100
            569 -88 callgsubr
            hintmask 1110010110000100
            -89 callsubr
            hintmask 1110010110100100
            -276 86 hlineto
            hintmask 1010010110000100
            195 -105 callsubr
            hintmask 1011010110000100
            107 -107 callgsubr
            hintmask 1011110110100100
            -195 77 hlineto
            hintmask 1010110110000100
            276 -105 callsubr
            hintmask 1010010110000100
            -89 callsubr
            -464 -99 callgsubr
            hintmask 1110010110000100
            410 100 rmoveto
            -10 vlineto
            hintmask 1010010110000100
            59 callsubr
            hintmask 1011110110110000
            52 callsubr
            hintmask 1110010110100100
            189 callsubr
            187 832 63 callgsubr
            rrcurveto
            hintmask 1010011101001000
            -137 40 rlineto
            174 callgsubr
            -95 callsubr
            hintmask 1010010101001000
            -98 callgsubr
            endchar
          </CharString>
          <CharString index="97">
            -3 -126 216 -90 181 callsubr
            104 261 callsubr
            hintmask 1001101100100000
            339 -126 rmoveto
            26 13 9 21 7 hvcurveto
            34 96 rlineto
            120 5 71 62 109 vvcurveto
            105 vlineto
            -30 callsubr
            hintmask 0101101001000000
            233 -105 callsubr
            hintmask 0110101001000000
            -49 callsubr
            hintmask 0110110010100000
            -36 callgsubr
            hintmask 0100110000100000
            -117 -104 callgsubr
            128 hlineto
            hintmask 1000101000100000
            -32 -86 344 callsubr
            86 90 rmoveto
            hintmask 0100110000100000
            45 126 rlineto
            -203 10 hlineto
            hintmask 0110101010100000
            -72 callgsubr
            hintmask 0100101001000000
            222 -10 hlineto
            hintmask 0101101100100000
            -72 callsubr
            -35 hlineto
            hintmask 1000101000100000
            -46 -126 rlineto
            endchar
          </CharString>
          <CharString index="98">
            228 callsubr
            81 77 10 89 504 callsubr
            hintmask 1001101000100000
            548 -88 callgsubr
            hintmask 1111101010100000
            -33 callgsubr
            hintmask 1001101000100000
            21 callgsubr
            hintmask 1101101000100000
            189 100 rmoveto
            -10 vlineto
            hintmask 1001101000100000
            -167 -25 callsubr
            167 -10 hlineto
            hintmask 1111101011000000
            487 callgsubr
            -280 295 callgsubr
            -13 176 callsubr
            hintmask 1001110101000000
            151 callgsubr
            endchar
          </CharString>
          <CharString index="99">
            rmoveto
            -206 368 206 vlineto
            75 -37 50 -147 317 callsubr
            103 -10 rmoveto
            27 9 20 71 70 9 -20 -27 vhcurveto
            -109 -159 vlineto
            265 -258 rmoveto
            return
          </CharString>
          <CharString index="100">
            126 0 90 -90 242 -94 94 10 95 78 79 10 80 36 90 hstemhm
            30 90 -41 107 10 107 173 107 10 107 -41 90 hintmask 0101101011110000
            583 504 rmoveto
            -387 -252 387 hlineto
            -280 95 rmoveto
            78 173 -78 vlineto
            hintmask 1000101010010000
            -290 -257 rmoveto
            414 vlineto
            hintmask 0100101100010000
            -66 10 hlineto
            hintmask 0100111010010000
            66 116 10 hlineto
            hintmask 0100111011110000
            -116 387 116 10 vlineto
            hintmask 0100111010010000
            -116 vlineto
            hintmask 0100111010001000
            66 -10 hlineto
            hintmask 1000101010010000
            -66 -414 -10 hlineto
            hintmask 0100101011110000
            152 -387 vlineto
            hintmask 1000101011010000
            -152 vlineto
            hintmask 0100101011010000
            107 -54 rmoveto
            hintmask 0010101011110000
            112 173 vlineto
            hintmask 0100101010110000
            -112 -104 callgsubr
            hintmask 0100101010010000
            184 callsubr
            389 vlineto
            hintmask 0100101010001000
            13 104 callgsubr
            hintmask 0100111010001000
            97 -73 callsubr
            hintmask 0100111010010000
            -13 90 225 callsubr
            hintmask 0100111011110000
            193 callsubr
            -90 -173 90 -107 callgsubr
            hintmask 0100111010010000
            193 callsubr
            -90 vlineto
            hintmask 0100111100010000
            -13 -107 callsubr
            hintmask 0100101100010000
            -97 -6 callgsubr
            hintmask 0100101010010000
            13 -389 157 callgsubr
            hintmask 0100101011010000
            184 callsubr
            endchar
          </CharString>
          <CharString index="101">
            rmoveto
            16 -2 rlineto
            hintmask 0000100000001000
            55 callsubr
            hintmask 0000001000001000
            -74 callgsubr
            hintmask 0000000101000000
            -79 callgsubr
            hintmask 0000010001000000
            -74 callsubr
            hintmask 0000001000001000
            147 73 rmoveto
            -10 vlineto
            hintmask 0000100010000000
            -27 -3 -26 3 -51 8 rrcurveto
            hintmask 0000010001000000
            -62 callgsubr
            hintmask 0000001000000100
            -47 callsubr
            hintmask 0000001000001000
            72 callgsubr
          </CharString>
          <CharString index="102">
            228 callsubr
            32 89 10 76 504 callsubr
            hintmask 1001011000100000
            548 -88 callgsubr
            hintmask 1111011010100000
            -33 callgsubr
            hintmask 1001011000100000
            21 callgsubr
            hintmask 1101011000100000
            189 100 rmoveto
            -10 573 callsubr
            -167 -25 callsubr
            167 -10 hlineto
            hintmask 1111011010100000
            487 callgsubr
            -280 295 callgsubr
            50 832 63 callgsubr
            rrcurveto
            hintmask 1001110101000000
            -137 40 rlineto
            174 callgsubr
            -95 callsubr
            hintmask 1001010101000000
            -98 callgsubr
            endchar
          </CharString>
          <CharString index="103">
            562 callgsubr
            358 callgsubr
            69 108 -8 90 -72 109 167 108 -74 91 -7 109 hintmask 1101101000010000
            177 304 callsubr
            hintmask 1111101011010000
            -265 384 265 10 vlineto
            hintmask 1101101000010000
            262 callsubr
            hintmask 1101101011010000
            57 callsubr
            hintmask 1101101000010000
            155 -60 callgsubr
            hintmask 1111101011010000
            214 callgsubr
            -167 260 callsubr
            hintmask 1101101000100000
            -155 -99 callgsubr
            242 271 callgsubr
            hintmask 1101110100100000
            -102 callsubr
            hintmask 1101100100100000
            -103 callgsubr
            hintmask 1101110100100000
            -99 callsubr
            hintmask 1101101000100000
            255 callgsubr
          </CharString>
          <CharString index="104">
            1 373 callgsubr
            187 hstemhm
            69 109 -65 98 -23 105 -72 97 54 97 -35 90 -45 97 -61 90 hintmask 1010011100110010
            569 -88 callgsubr
            hintmask 0100000100000010
            -89 callsubr
            hintmask 0110000001000000
            -276 86 hlineto
            hintmask 0010000100000000
            195 -105 callsubr
            hintmask 0001000100000000
            107 -107 callgsubr
            hintmask 0001100001000000
            -195 77 hlineto
            hintmask 0000100100000000
            276 -105 callsubr
            hintmask 1000010100000000
            298 callsubr
            hintmask 1000010100000010
            59 callsubr
            hintmask 0001100001001000
            52 callsubr
            hintmask 0110000001000000
            189 callsubr
            hintmask 0000001000100000
            97 660 rmoveto
            -93 callgsubr
            hintmask 0000001010000100
            -98 callsubr
            hintmask 0000001000110000
            -92 callsubr
            hintmask 0000001010000100
            -20 callgsubr
            hintmask 0000001000010000
            325 callsubr
          </CharString>
          <CharString index="105">
            132 callgsubr
            32 350 callsubr
            53 90 -50 90 5 70 callsubr
            3 91 -51 90 hintmask 1001011010010000
            89 hmoveto
            hintmask 1001011011010000
            99 callsubr
            hintmask 1111011011010000
            58 callsubr
            336 97 -105 callsubr
            hintmask 1001011011010000
            229 callgsubr
            404 callsubr
            hintmask 1001011010010000
            318 -10 hlineto
            hintmask 1111010101010000
            -153 -520 153 hlineto
            -127 832 23 callsubr
            hintmask 1001110100100000
            -95 callsubr
            hintmask 1001010100100000
            -98 callgsubr
            endchar
          </CharString>
          <CharString index="106">
            hlineto
            70 callgsubr
            return
          </CharString>
          <CharString index="107">
            103 237 callsubr
            26 110 callsubr
            13 68 578 callgsubr
            10 109 -35 492 callsubr
            4 80 -74 107 -23 87 hintmask 0100110101001000
            373 -15 rmoveto
            hintmask 0100110101010000
            248 61 348 callgsubr
            416 vlineto
            hintmask 0100110101001000
            49 25 15 40 51 vvcurveto
            -37 callgsubr
            hintmask 0100110100101000
            -111 hlineto
            -23 -7 -7 -24 hvcurveto
            hintmask 0101110100101000
            -21 vlineto
            -19 -7 -10 -33 vhcurveto
            hintmask 0111111001001000
            -35 -96 callsubr
            hintmask 0101110101001000
            -61 callsubr
            hintmask 0100110101001000
            277 callgsubr
            hintmask 0101110101010000
            1 93 rmoveto
            -157 -43 380 callgsubr
            hintmask 0111111001001000
            69 callsubr
            hintmask 0101110101010000
            58 26 46 48 hvcurveto
            9 10 -9 vlineto
            -48 -20 -48 -64 -8 vhcurveto
            -407 288 callgsubr
            vhcurveto
            hintmask 1100110110001000
            78 -318 -93 callsubr
            hintmask 1100110101001000
            -158 -107 callsubr
            -127 -104 callgsubr
            hintmask 1100110110001000
            84 70 14 callgsubr
            hintmask 1100110101001000
            202 callsubr
          </CharString>
          <CharString index="108">
            196 0 90 157 128 10 125 120 90 hstemhm
            69 106 10 105 264 103 10 113 hintmask 10111001
            421 385 rmoveto
            24 4 7 35 23 hvcurveto
            122 186 rlineto
            13 8 10 4 11 hhcurveto
            17 hlineto
            19 8 -9 -22 hvcurveto
            -509 -10 vlineto
            hintmask 11111111
            509 vlineto
            11 -3 10 -14 vhcurveto
            -15 hlineto
            -9 -6 -1 -13 -8 hvcurveto
            -122 -184 rlineto
            -36 -24 -6 -11 -29 hhcurveto
            -29 -6 11 36 -24 hvcurveto
            -122 184 rlineto
            13 -8 -7 1 -9 hhcurveto
            -15 hlineto
            -14 -2 -10 -11 hvcurveto
            -509 -10 vlineto
            hintmask 10111001
            509 vlineto
            22 8 9 18 vhcurveto
            17 hlineto
            11 11 -4 -13 8 hvcurveto
            122 -186 rlineto
            -35 23 4 -7 24 hhcurveto
            hintmask 11111111
            -167 -385 -94 callsubr
            352 vlineto
            59 -109 rlineto
            -23 12 15 -9 26 hhcurveto
            40 hlineto
            26 15 9 23 12 hvcurveto
            59 109 rlineto
            -352 vlineto
            -25 10 -11 26 vhcurveto
            hintmask 10111001
            154 -60 callgsubr
            -162 hlineto
            -21 -13 -8 -22 -12 hvcurveto
            -89 -163 rlineto
            -12 -7 -3 -5 -8 hhcurveto
            -9 hlineto
            -8 -3 5 12 -7 hvcurveto
            -90 163 rlineto
            22 -12 -13 8 -21 hhcurveto
            -161 -99 callgsubr
            endchar
          </CharString>
          <CharString index="109">
            132 callgsubr
            40 187 hstemhm
            53 90 -75 98 10 97 -85 70 callsubr
            -91 97 10 97 -70 90 hintmask 1001110010010000
            89 hmoveto
            hintmask 1000000001000000
            99 callsubr
            hintmask 0110000001000000
            58 callsubr
            336 97 -105 callsubr
            hintmask 0001000001000000
            121 -107 callgsubr
            hintmask 0001000010000000
            -426 -107 callsubr
            hintmask 0110000010000000
            -121 -104 callgsubr
            99 -336 -99 -107 callsubr
            hintmask 1000000010000000
            -119 vlineto
            hintmask 1001110010010000
            -103 callsubr
            hintmask 1000010000001000
            372 90 rmoveto
            -318 10 hlineto
            hintmask 0110010010000000
            155 520 -155 10 hlineto
            hintmask 0001000000001000
            318 -10 hlineto
            hintmask 0110100101001000
            -153 -520 153 hlineto
            -221 660 rmoveto
            -93 callgsubr
            hintmask 0000101000010000
            -98 callsubr
            hintmask 0000100100100000
            -92 callsubr
            hintmask 0000101000010000
            -20 callgsubr
            hintmask 0000100000100000
            325 callsubr
          </CharString>
          <CharString index="110">
            -152 -1 callsubr
            -416 537 callgsubr
            -62 -61 195 callsubr
            416 -107 callgsubr
            return
          </CharString>
          <CharString index="111">
            -48 346 callsubr
            46 183 callsubr
            hstemhm
            53 90 45 110 5 83 -78 110 -22 258 callgsubr
            hintmask 1010011101010000
            551 -152 rmoveto
            hintmask 1110011101010000
            172 callgsubr
            hintmask 1110011100100000
            314 callgsubr
            hintmask 1010011101010000
            313 callgsubr
            hintmask 1011111101010000
            58 callsubr
            336 97 -105 callsubr
            hintmask 1010011101010000
            121 -107 callgsubr
            hintmask 1010011100010000
            -426 -107 callsubr
            hintmask 1011111100010000
            -121 -104 callgsubr
            99 -336 -99 -107 callsubr
            hintmask 1010011100010000
            -119 -104 callgsubr
            226 hlineto
            -9 -51 rlineto
            hintmask 1010011010010000
            -93 -14 29 -42 86 hhcurveto
            hintmask 1010011101010000
            527 callgsubr
            hintmask 1010011010010000
            290 callsubr
            -279 10 hlineto
            hintmask 1011111100010000
            155 520 -155 10 hlineto
            hintmask 1010011100010000
            318 -10 hlineto
            hintmask 1011111101010000
            -153 -520 153 -10 hlineto
            hintmask 1110011100100000
            -20 hlineto
            58 callgsubr
            hintmask 1110011100010000
            554 callgsubr
          </CharString>
          <CharString index="112">
            234 callgsubr
            240 120 callsubr
            return
          </CharString>
          <CharString index="113">
            1 346 callsubr
            46 454 callsubr
            64 83 -6 90 -74 258 callgsubr
            hintmask 1010100110100100
            605 -152 rmoveto
            hintmask 1110100110100100
            172 callgsubr
            hintmask 1110100110101000
            314 callgsubr
            313 callgsubr
            hintmask 1011100110100100
            -89 callsubr
            hintmask 1011100111100100
            -276 86 hlineto
            hintmask 1010100110100100
            195 -105 callsubr
            hintmask 1010110110100100
            107 -107 callgsubr
            hintmask 1010111111100100
            -195 77 hlineto
            hintmask 1010101110100100
            276 -105 callsubr
            hintmask 1010100110100100
            -89 callsubr
            -464 -99 callgsubr
            264 hlineto
            -9 -51 rlineto
            94 callsubr
            12 83 4 26 4 10 16 12 rlinecurve
            -298 540 337 -10 hlineto
            hintmask 1010111111010000
            52 callsubr
            hintmask 1011100111100100
            -246 -259 327 -10 hlineto
            hintmask 1110100110101000
            -20 hlineto
            58 callgsubr
            hintmask 1110100110100100
            554 callgsubr
          </CharString>
          <CharString index="114">
            540 228 vlineto
            78 36 -48 -66 hvcurveto
            -69 vlineto
            -61 -12 -40 -48 -15 vhcurveto
            11 hlineto
            return
          </CharString>
          <CharString index="115">
            -113 350 rmoveto
            -73 vlineto
            -42 36 -15 77 76 36 15 42 vhcurveto
            68 vlineto
            45 -37 19 -75 -75 -38 -18 -41 vhcurveto
            68 -52 rmoveto
            31 vlineto
            15 5 11 40 41 4 -11 -15 vhcurveto
            -31 vlineto
            -16 -4 -11 -41 -40 -5 11 16 vhcurveto
            return
          </CharString>
          <CharString index="116">
            rmoveto
            23 6 16 0 23 -6 rrcurveto
            return
          </CharString>
          <CharString index="117">
            -36 vvcurveto
            -81 vlineto
            return
          </CharString>
          <CharString index="118">
            -94 -157 rmoveto
            -65 vlineto
            -41 35 -27 104 104 34 27 41 vhcurveto
            66 vlineto
            42 -35 28 -103 -103 -36 -28 -43 vhcurveto
            76 -47 rmoveto
            38 vlineto
            14 11 12 52 53 10 -12 -14 vhcurveto
            -38 vlineto
            -15 -10 -12 -53 -52 -11 12 15 vhcurveto
            return
          </CharString>
          <CharString index="119">
            -102 callsubr
            hintmask 0000001001001000
            -103 callgsubr
            hintmask 0000000101001000
            -99 callsubr
            return
          </CharString>
          <CharString index="120">
            132 callsubr
            10 85 return
          </CharString>
          <CharString index="121">
            100 460 callsubr
            40 381 callgsubr
            -7 90 -73 107 171 107 -73 90 -7 105 hintmask 1011100001000000
            201 622 rmoveto
            hintmask 1011100101000000
            122 callgsubr
            hintmask 1011100001000000
            262 callsubr
            hintmask 1011101101000000
            -38 callgsubr
            hintmask 1011100001000000
            62 callgsubr
            hintmask 1011101101000000
            -46 callgsubr
            hintmask 1011100001000000
            150 -60 callgsubr
            hintmask 1011100101000000
            -78 callsubr
            hintmask 1011100010000000
            445 433 callsubr
            hintmask 1111010010000000
            93 -107 callgsubr
            -347 -107 callsubr
            hintmask 1011010001000000
            -93 -104 callgsubr
            hintmask 1111010010000000
            54 callgsubr
            hintmask 1011010001000000
            266 callsubr
          </CharString>
          <CharString index="122">
            106 0 90 10 89 95 80 167 89 10 90 hstemhm
            69 114 10 103 60 90 -52 107 -4 109 -94 116 -12 109 hintmask 1010111000010000
            193 90 14 callgsubr
            hintmask 1010110000100000
            540 248 vlineto
            69 25 -37 -75 -20 hvcurveto
            -40 -144 rlineto
            46 hlineto
            hintmask 1010110100010000
            316 callsubr
            -56 10 hlineto
            hintmask 1111111001010000
            56 300 callsubr
            -60 hlineto
            44 156 rlineto
            65 18 -21 35 -61 hhcurveto
            -238 hlineto
            hintmask 1011111010010000
            103 -584 rmoveto
            495 79 vlineto
            17 5 -13 -15 -3 hvcurveto
            -33 -163 rlineto
            hintmask 1110110101010000
            -37 -8 13 -19 32 hhcurveto
            72 hlineto
            16 11 -7 -16 hvcurveto
            -49 vlineto
            -16 -11 -7 -16 vhcurveto
            -78 -107 callsubr
            hintmask 1010110100010000
            -117 -104 callgsubr
            138 hlineto
            120 75 64 102 hvcurveto
            123 vlineto
            93 -57 51 -71 13 vhcurveto
            23 83 rlineto
            hintmask 1010110000100000
            111 31 -57 80 -118 hhcurveto
            -371 hlineto
            -24 -12 -12 -24 hvcurveto
            528 callgsubr
            hintmask 1010111000010000
            155 hlineto
            hintmask 1011111010010000
            -106 callgsubr
            endchar
          </CharString>
          <CharString index="123">
            -4 106 hintmask 1001100000110000
            -105 callgsubr
            hintmask 0100000000110000
            169 callgsubr
            hintmask 1000000000100000
            -172 531 callgsubr
            -100 callgsubr
            vlineto
            hintmask 0100000000100000
            -297 530 callsubr
            151 callsubr
            hintmask 0100000000010000
            4 callgsubr
            hintmask 0100010010000100
            151 -102 callgsubr
            hintmask 0100000000100000
            147 -105 callsubr
            hintmask 0000001000001000
            return
          </CharString>
          <CharString index="124">
            22 callgsubr
            25 11 11 25 hvcurveto
            return
          </CharString>
          <CharString index="125">
            76 callsubr
            25 77 10 78 131 callgsubr
            -73 90 -7 109 hintmask 1010101000010000
            431 callsubr
            hintmask 1001001000010000
            122 -60 83 -250 -250 -61 -83 -122 vhcurveto
            41 callsubr
            vhcurveto
            hintmask 1010101000010000
            250 60 348 callgsubr
            -109 23 rmoveto
            356 callgsubr
            -157 -44 122 callsubr
            hintmask 0001001000010000
            -28 callgsubr
            hintmask 0110000011000000
            -394 -295 rmoveto
            -104 callsubr
            hintmask 0000100000100000
            256 535 -94 callsubr
            hintmask 0000010100100000
            93 -107 callgsubr
            -347 -107 callsubr
            hintmask 0000100100000000
            -93 -104 callgsubr
            hintmask 0000010100100000
            54 callgsubr
            hintmask 0000100100000000
            266 callsubr
          </CharString>
          <CharString index="126">
            77 0 90 10 110 420 90 hstemhm
            54 113 10 111 159 108 10 111 hintmask 10101100
            495 hmoveto
            26 15 8 25 10 hvcurveto
            hintmask 10101110
            98 245 rlineto
            24 60 8 19 63 vvcurveto
            264 vlineto
            25 -10 11 -26 vhcurveto
            hintmask 11101100
            -157 -107 callsubr
            -275 vlineto
            -14 -3 -12 -5 -15 vhcurveto
            -47 -141 rlineto
            -13 -4 -4 -4 -11 hhcurveto
            -11 hlineto
            -11 -4 4 13 -4 hvcurveto
            -47 140 rlineto
            -5 15 -3 12 14 vvcurveto
            276 vlineto
            25 -14 11 -25 vhcurveto
            hintmask 10111100
            377 callgsubr
            -264 vlineto
            -63 8 -19 24 -60 vhcurveto
            98 -245 rlineto
            -25 10 15 -8 26 hhcurveto
            -68 630 rmoveto
            10 hlineto
            hintmask 11101100
            -216 vlineto
            -35 5 -31 11 -27 vhcurveto
            66 -160 rlineto
            -35 14 11 -26 38 hhcurveto
            88 hlineto
            38 11 26 35 14 hvcurveto
            66 160 rlineto
            11 27 5 31 35 vvcurveto
            216 10 vlineto
            hintmask 10111110
            -216 vlineto
            -37 -4 -31 -12 -29 vhcurveto
            -66 -160 rlineto
            -39 -16 -15 -28 -42 hhcurveto
            -88 hlineto
            -42 -15 28 39 -16 hvcurveto
            -66 160 rlineto
            -12 29 -4 31 37 vvcurveto
            endchar
          </CharString>
          <CharString index="127">
            113 -107 callgsubr
            -312 62 callsubr
            -271 44 callsubr
            return
          </CharString>
          <CharString index="128">
            65 184 rlineto
            39 14 14 8 21 hhcurveto
            159 335 rmoveto
            -25 -6 -11 -25 hvcurveto
            -3 -272 rlineto
            -31 vlineto
            -40 118 rlineto
            22 -13 -14 9 -26 hhcurveto
            -31 hlineto
            -26 -14 -9 -22 -13 hvcurveto
            -40 -118 rlineto
            31 vlineto
            -4 272 436 callsubr
            return
          </CharString>
          <CharString index="129">
            -349 -43 rlineto
            -25 -3 -11 -8 -25 vvcurveto
            -96 vlineto
            -23 11 -13 23 3 vhcurveto
            -81 callgsubr
            return
          </CharString>
          <CharString index="130">
            63 callgsubr
            -137 40 rcurveline
            174 callgsubr
            return
          </CharString>
          <CharString index="131">
            3 0 90 437 93 10 90 32 350 callsubr
            28 90 0 90 3 117 callsubr
            1 91 1 90 hintmask 1110100110000000
            49 callsubr
            hintmask 1010100110000000
            121 -107 callgsubr
            hintmask 1010100100000000
            -528 -107 callsubr
            hintmask 1110110100000000
            137 callgsubr
            hintmask 1110101010000000
            -205 -530 hlineto
            26 392 callgsubr
            hintmask 1011101001000000
            -95 callsubr
            hintmask 1010101001000000
            -98 callgsubr
            endchar
          </CharString>
          <CharString index="132">
            93 -196 70 10 60 144 555 callsubr
            -20 83 10 81 -16 90 -63 107 10 107 hintmask 1011101010100000
            488 -196 rmoveto
            268 callgsubr
            hintmask 1111101010100000
            172 callgsubr
            hintmask 1111101100100000
            -41 hlineto
            6 44 rlineto
            184 16 48 77 108 vvcurveto
            -58 callsubr
            hintmask 1011110001100000
            -152 -96 callsubr
            hintmask 1011101010100000
            -61 callsubr
            -106 46 -76 175 -18 vhcurveto
            -9 -50 567 callgsubr
            30 70 rmoveto
            -49 -10 25 50 8 hvcurveto
            hintmask 1111101010100000
            12 83 4 25 3 10 15 11 rlinecurve
            -16 hlineto
            -157 -43 380 callgsubr
            hintmask 1011110001100000
            -84 callgsubr
            10 vlineto
            hintmask 1111101010100000
            475 callsubr
            -37 -51 -129 -8 vhcurveto
            -23 -13 -4 -6 -4 -28 394 callgsubr
            endchar
          </CharString>
          <CharString index="133">
            72 rlineto
            -9 14 0 14 14 vvcurveto
            164 -107 callgsubr
            return
          </CharString>
          <CharString index="134">
            -25 -50 181 10 90 256 91 10 182 384 callgsubr
            10 110 -32 104 10 103 22 91 hintmask 1110101110000000
            471 -14 rmoveto
            54 77 104 callsubr
            hintmask 0110110110000000
            150 callsubr
            -52 -9 20 28 hvcurveto
            158 vlineto
            26 9 24 52 486 callsubr
            hintmask 0111101110000000
            121 -107 callgsubr
            -77 54 225 callsubr
            hintmask 1111101010000000
            592 callgsubr
            -149 -14 -47 -79 -110 vvcurveto
            -231 vlineto
            -110 47 -78 149 -14 vhcurveto
            -56 -104 callgsubr
            hintmask 1110101110000000
            145 -105 callsubr
            hintmask 1111101010000000
            -113 145 rmoveto
            -32 hlineto
            234 callgsubr
            197 vlineto
            95 32 36 128 vhcurveto
            32 92 10 hlineto
            hintmask 0111101110000000
            -92 vlineto
            hintmask 0111101010000000
            125 -10 hlineto
            hintmask 0110110010000000
            487 callgsubr
            -197 413 callsubr
            hintmask 1110101110000000
            -125 -91 -10 hlineto
            endchar
          </CharString>
          <CharString index="135">
            rmoveto
            -94 -15 callgsubr
            hintmask 11011001
            111 hlineto
            421 callgsubr
            466 vlineto
            18 -7 8 -18 vhcurveto
            hintmask 11111111
            -111 51 callsubr
            -222 -67 vlineto
            -14 -9 10 15 hvcurveto
            197 vlineto
            18 -7 8 -18 vhcurveto
            hintmask 11011011
            -112 51 callsubr
            -253 vlineto
            -82 37 -37 94 vhcurveto
            198 -56 rmoveto
            127 -171 vlineto
            -56 -25 25 51 hvcurveto
            186 10 vlineto
            hintmask 11111111
            -186 vlineto
            -45 23 -22 48 vhcurveto
            171 253 10 hlineto
            hintmask 11011001
            -389 vlineto
            endchar
          </CharString>
          <CharString index="136">
            179 callsubr
            121 -53 83 -249 -248 -52 -83 -121 vhcurveto
            208 callgsubr
            return
          </CharString>
          <CharString index="137">
            46 callsubr
            11 0 14 6 hvcurveto
            return
          </CharString>
          <CharString index="138">
            rmoveto
            -37 callgsubr
            return
          </CharString>
          <CharString index="139">
            90 rmoveto
            100 -214 10 vlineto
            hintmask 01101000
            214 320 -214 10 hlineto
            hintmask 01111000
            214 90 10 hlineto
            hintmask 01111100
            -90 214 -10 vlineto
            hintmask 01101100
            -214 -320 214 -10 hlineto
            hintmask 11101100
            -214 -100 hlineto
            104 -68 rmoveto
            -7 86 165 -17 rlineto
            35 -3 7 6 35 vvcurveto
            hintmask 01101100
            131 vlineto
            35 -7 6 -35 -4 vhcurveto
            -175 -16 20 67 rlineto
            23 vlineto
            -20 68 175 -16 rlineto
            35 -4 7 6 35 vvcurveto
            hintmask 01111100
            131 vlineto
            34 -7 6 -35 -3 vhcurveto
            -165 -16 7 86 rlineto
            35 3 -5 7 -35 hhcurveto
            hintmask 01111000
            -144 hlineto
            -35 -5 -7 -35 3 hvcurveto
            7 -86 -165 16 rlineto
            -35 3 -7 -6 -34 vvcurveto
            hintmask 01101000
            -131 vlineto
            -35 7 -6 35 4 vhcurveto
            174 16 -19 -68 rlineto
            -1 -3 0 -4 0 -4 0 -5 0 -4 -3 flex1
            19 -67 -174 16 rlineto
            -35 4 -7 -6 -35 vvcurveto
            hintmask 11101000
            -131 vlineto
            -35 7 -6 35 3 vhcurveto
            165 17 -7 -86 rlineto
            -36 -3 5 -6 35 hhcurveto
            hintmask 11101100
            144 hlineto
            35 5 6 36 -3 hvcurveto
            endchar
          </CharString>
          <CharString index="140">
            hlineto
            -130 -77 -62 -114 hvcurveto
            -105 vlineto
            -112 61 -40 94 -14 vhcurveto
            return
          </CharString>
          <CharString index="141">
            rmoveto
            37 callsubr
            return
          </CharString>
          <CharString index="142">
            -25 -126 216 -90 90 -89 89 568 callgsubr
            384 callgsubr
            10 110 207 91 hintmask 0100011010000000
            435 -96 rmoveto
            34 96 rlineto
            79 -105 callsubr
            hintmask 0101111110000000
            -33 callgsubr
            hintmask 0010011010000000
            121 -107 callgsubr
            -244 hlineto
            -168 -78 -65 -140 507 callgsubr
            -128 66 -65 141 -10 vhcurveto
            hintmask 1000011010000000
            542 callgsubr
            hintmask 0100011010000000
            26 13 9 21 7 hvcurveto
            hintmask 1000011010000000
            -86 60 rmoveto
            hintmask 0100011010000000
            45 126 rlineto
            -68 -25 callsubr
            167 -10 hlineto
            hintmask 0101111110000000
            487 callgsubr
            -280 413 callsubr
            hintmask 0100011010000000
            -88 hlineto
            hintmask 1000011010000000
            -46 -126 rlineto
            endchar
          </CharString>
          <CharString index="143">
            77 0 90 10 89 332 94 10 95 hstemhm
            54 108 10 100 178 104 10 112 hintmask 10011001
            640 hmoveto
            26 10 -97 callgsubr
            134 vlineto
            59 -16 59 -13 52 vhcurveto
            -87 339 rlineto
            30 -12 -16 11 -33 hhcurveto
            -267 hlineto
            -34 -15 -11 -30 -13 hvcurveto
            -87 -339 rlineto
            -13 -52 -16 -59 -59 134 callgsubr
            72 90 rmoveto
            103 vlineto
            38 5 33 6 24 vhcurveto
            59 247 rlineto
            89 21 21 1 62 hhcurveto
            51 hlineto
            62 20 -1 -89 22 hvcurveto
            63 -250 rlineto
            5 -21 5 -33 -38 vvcurveto
            -103 vlineto
            hintmask 11111111
            -392 103 rmoveto
            -93 382 93 vlineto
            38 -5 31 -5 21 vhcurveto
            -63 250 rlineto
            81 -20 -18 1 -56 hhcurveto
            -51 hlineto
            -56 -19 -1 -81 -19 hvcurveto
            -59 -247 rlineto
            -6 -24 -5 -31 -38 vvcurveto
            100 17 rmoveto
            14 4 21 4 16 vhcurveto
            54 243 rlineto
            13 5 3 4 11 hhcurveto
            17 hlineto
            11 3 -4 -13 5 hvcurveto
            53 -243 rlineto
            4 -16 4 -21 -14 vvcurveto
            -21 -178 vlineto
            endchar
          </CharString>
          <CharString index="144">
            16 -2 80 -12 14 -2 63 19 rlinecurve
            23 9 13 7 25 vvcurveto
            return
          </CharString>
          <CharString index="145">
            -48 237 callsubr
            41 183 callsubr
            hstemhm
            53 90 45 70 callsubr
            43 90 hintmask 1100111010000000
            89 hmoveto
            hintmask 1100111110000000
            99 callsubr
            hintmask 1111111110000000
            58 callsubr
            336 97 -105 callsubr
            hintmask 1100111110000000
            121 -107 callgsubr
            hintmask 1100111010000000
            -426 -107 callsubr
            hintmask 1111111010000000
            -121 -104 callgsubr
            99 -336 -99 -107 callsubr
            hintmask 1100111010000000
            -119 -104 callgsubr
            372 90 rmoveto
            -318 10 hlineto
            hintmask 1111111010000000
            155 520 -155 10 hlineto
            hintmask 1100111010000000
            318 -10 hlineto
            hintmask 1111111110000000
            -153 -520 153 hlineto
            -79 263 callsubr
            hintmask 1100111010000000
            -158 -107 callsubr
            -127 -104 callgsubr
            hintmask 1100111110000000
            84 70 14 callgsubr
            hintmask 1100111010000000
            202 callsubr
          </CharString>
          <CharString index="146">
            103 69 callgsubr
            13 68 578 callgsubr
            10 460 callgsubr
            4 80 -74 107 -23 87 hintmask 1001101001000000
            373 -15 rmoveto
            hintmask 1001101010000000
            248 61 348 callgsubr
            416 vlineto
            hintmask 1001101001000000
            49 25 15 40 51 vvcurveto
            -37 callgsubr
            hintmask 1001100101000000
            -111 hlineto
            -23 -7 -7 -24 hvcurveto
            hintmask 1011100101000000
            -21 vlineto
            -19 -7 -10 -33 vhcurveto
            hintmask 1111111001000000
            -35 -96 callsubr
            hintmask 1011101001000000
            -61 callsubr
            hintmask 1001101001000000
            277 callgsubr
            hintmask 1011101010000000
            1 93 rmoveto
            -157 -43 380 callgsubr
            hintmask 1111111001000000
            69 callsubr
            hintmask 1011101010000000
            58 26 46 48 hvcurveto
            9 10 -9 vlineto
            -48 -20 -48 -64 -8 vhcurveto
            -407 288 callgsubr
            vhcurveto
            endchar
          </CharString>
          <CharString index="147">
            95 callsubr
            202 104 callsubr
            return
          </CharString>
          <CharString index="148">
            -341 100 callgsubr
            return
          </CharString>
          <CharString index="149">
            62 -15 103 10 80 88 88 10 81 86 89 10 90 hstemhm
            53 104 -27 85 -48 113 168 99 10 109 hintmask 1001011000100000
            364 -15 rmoveto
            244 58 348 callgsubr
            327 vlineto
            121 -57 83 -189 vhcurveto
            hintmask 1001010100100000
            -254 -107 callsubr
            hintmask 1001110101100000
            -117 -104 callgsubr
            221 hlineto
            52 9 -20 -28 hvcurveto
            -38 573 callsubr
            -359 -107 callsubr
            -220 vlineto
            379 callsubr
            hintmask 1001110101100000
            183 379 rmoveto
            133 vlineto
            89 -34 34 -125 vhcurveto
            -173 10 hlineto
            hintmask 1001011000100000
            173 hlineto
            135 34 -38 -95 hvcurveto
            -280 vlineto
            -92 -37 -37 -162 -164 -37 37 92 vhcurveto
            147 vlineto
            390 -10 rmoveto
            hintmask 1111011011100000
            -380 -137 hlineto
            -88 39 -31 152 150 39 31 88 vhcurveto
            -183 -39 rmoveto
            -72 -12 20 27 hvcurveto
            41 168 -41 vlineto
            -27 -11 -20 -73 vhcurveto
            endchar
          </CharString>
          <CharString index="150">
            305 callsubr
            -10 -26 hvcurveto
            -203 -104 callgsubr
            return
          </CharString>
          <CharString index="151">
            vlineto
            -121 57 -83 189 vhcurveto
            return
          </CharString>
          <CharString index="152">
            -99 callgsubr
            73 441 callsubr
            return
          </CharString>
          <CharString index="153">
            -294 -5 callgsubr
            return
          </CharString>
          <CharString index="154">
            -243 83 callsubr
            391 544 rmoveto
            return
          </CharString>
          <CharString index="155">
            97 callgsubr
            -48 53 -73 8 vhcurveto
            return
          </CharString>
          <CharString index="156">
            409 -88 callgsubr
            491 147 104 callsubr
            return
          </CharString>
          <CharString index="157">
            rmoveto
            165 42 58 88 hvcurveto
            69 vlineto
            85 -39 44 -130 vhcurveto
            hintmask 1001111101000000
            -39 -30 -4 -7 -23 hvcurveto
            16 vlineto
            36 11 8 35 vhcurveto
            134 hlineto
            223 callgsubr
            hintmask 1001011001000000
            84 vlineto
            18 -7 8 -19 vhcurveto
            -165 hlineto
            -136 -41 -59 -88 hvcurveto
            -236 573 callsubr
            -88 39 -58 177 vhcurveto
            -1 61 rmoveto
            -78 -60 10 73 hvcurveto
            237 vlineto
            66 36 18 63 vhcurveto
            hintmask 1001011001000000
            130 -8 hlineto
            hintmask 1001111100100000
            -130 hlineto
            -57 -34 -16 -60 hvcurveto
            -136 vlineto
            34 19 53 8 60 hhcurveto
            73 55 -4 -74 hvcurveto
            -65 573 callsubr
            -71 -55 -12 -75 vhcurveto
            hintmask 1111011110100000
            8 vmoveto
            67 55 8 67 hvcurveto
            65 vlineto
            70 -55 0 -65 -64 -68 -8 -56 vhcurveto
            -71 vlineto
            -69 60 -6 70 vhcurveto
            -53 131 rmoveto
            14 7 12 42 43 6 -12 -14 vhcurveto
            -43 vlineto
            -15 -6 -11 -43 -42 -7 11 15 vhcurveto
            endchar
          </CharString>
          <CharString index="158">
            hlineto
            -18 -8 -8 -18 hvcurveto
            return
          </CharString>
          <CharString index="159">
            -327 -251 246 -10 hlineto
            return
          </CharString>
          <CharString index="160">
            3 460 callsubr
            40 90 437 266 callgsubr
            1 90 2 117 callsubr
            3 90 0 90 hintmask 1011100110000000
            49 callsubr
            hintmask 1010100110000000
            121 -107 callgsubr
            hintmask 1010100100000000
            -528 -107 callsubr
            hintmask 1011110100000000
            137 callgsubr
            hintmask 1011100110000000
            -205 -530 hlineto
            hintmask 1010100101000000
            169 -295 -94 callsubr
            hintmask 1110101001000000
            93 -107 callgsubr
            -347 -107 callsubr
            hintmask 1010101000000000
            -93 -104 callgsubr
            hintmask 1110101001000000
            54 callgsubr
            hintmask 1010101000000000
            266 callsubr
          </CharString>
          <CharString index="161">
            39 0 90 -90 187 -85 85 10 85 151 88 10 89 564 callgsubr
            107 137 102 10 104 hintmask 0100010100100000
            260 -88 callgsubr
            hintmask 0010010100100000
            66 115 vlineto
            182 54 79 116 hvcurveto
            128 vlineto
            116 -54 79 -182 vhcurveto
            -115 hlineto
            hintmask 0100011100100000
            64 -107 callgsubr
            -155 -99 callgsubr
            hintmask 1000011100100000
            72 304 callsubr
            hintmask 0100010110100000
            -99 206 vlineto
            126 24 -58 -78 hvcurveto
            -75 vlineto
            -78 -24 -55 -126 vhcurveto
            -206 hlineto
            hintmask 1001110111100000
            -97 vlineto
            107 456 callsubr
            75 vlineto
            72 -22 54 -118 vhcurveto
            -206 hlineto
            107 -88 171 callgsubr
          </CharString>
          <CharString index="162">
            80 -12 14 -2 63 19 rrcurveto
            23 9 13 7 25 vvcurveto
            return
          </CharString>
          <CharString index="163">
            497 callsubr
            28 90 65 199 59 92 callsubr
            127 104 -94 103 1 103 -94 104 hintmask 1011110000100000
            614 -88 callgsubr
            hintmask 1111110000100000
            235 -107 callgsubr
            hintmask 1111111010100000
            50 callgsubr
            -82 584 callgsubr
            hintmask 1011110000100000
            -155 45 callsubr
            10 vlineto
            hintmask 1111111010100000
            -530 348 vlineto
            hintmask 1011110010100000
            117 10 vlineto
            hintmask 1011110000100000
            -127 vlineto
            hintmask 1011110001000000
            58 282 -93 callsubr
            hintmask 1011110100100000
            50 callgsubr
            -127 -104 callgsubr
            68 70 rmoveto
            55 10 vlineto
            hintmask 1011110001000000
            -55 vlineto
            endchar
          </CharString>
          <CharString index="164">
            265 -384 -265 vlineto
            73 233 callgsubr
            167 259 callgsubr
            return
          </CharString>
          <CharString index="165">
            119 -107 callgsubr
            -97 return
          </CharString>
          <CharString index="166">
            -337 540 337 -10 hlineto
            return
          </CharString>
          <CharString index="167">
            rmoveto
            -29 -9 -14 -50 -49 -8 14 29 vhcurveto
            35 vlineto
            26 8 14 49 50 9 -14 -26 vhcurveto
            return
          </CharString>
          <CharString index="168">
            121 -107 callgsubr
            -258 383 callsubr
            -121 hvcurveto
            -272 44 callsubr
            -137 457 rmoveto
            311 callsubr
            return
          </CharString>
          <CharString index="169">
            383 callsubr
            -122 hvcurveto
            return
          </CharString>
          <CharString index="170">
            -85 callsubr
            hintmask 0000000101000100
            -102 callsubr
            hintmask 0000001001000100
            -103 callgsubr
            hintmask 0000000101000100
            -99 callsubr
            hintmask 0000001000010100
            83 -27 rlineto
            -62 316 79 callsubr
            hintmask 0000001000010010
            -31 callgsubr
          </CharString>
          <CharString index="171">
            -16 108 hintmask 1001100000110000
            315 467 -8 callsubr
            hintmask 0100000000110000
            575 callsubr
            hintmask 1000000000100000
            -161 531 callgsubr
            96 callgsubr
            hintmask 0100000000100000
            -275 530 callsubr
            536 callgsubr
            hintmask 0100000000010000
            -129 -104 callgsubr
            hintmask 0100010010000100
            152 29 callsubr
            hintmask 0100000000100000
            147 -105 callsubr
            hintmask 0000001000001000
            return
          </CharString>
          <CharString index="172">
            1 0 454 callsubr
            141 90 -9 90 hintmask 1010011001000000
            569 -88 callgsubr
            hintmask 1110011001000000
            -89 callsubr
            hintmask 1110011101000000
            -276 86 hlineto
            hintmask 1010011001000000
            195 -105 callsubr
            hintmask 1011011001000000
            107 -107 callgsubr
            hintmask 1011111101000000
            -195 77 hlineto
            hintmask 1010111001000000
            276 -105 callsubr
            hintmask 1010011001000000
            -89 callsubr
            -464 -99 callgsubr
            hintmask 1110011001000000
            410 100 rmoveto
            -10 vlineto
            hintmask 1010011001000000
            59 callsubr
            hintmask 1011111110000000
            52 callsubr
            hintmask 1110011101000000
            189 callsubr
            endchar
          </CharString>
          <CharString index="173">
            -12 107 hintmask 1001100000110000
            184 507 -26 callsubr
            hintmask 0100000000110000
            533 callsubr
            hintmask 1000000000100000
            -181 531 callgsubr
            105 callsubr
            vlineto
            hintmask 0100000000100000
            -282 530 callsubr
            420 callsubr
            hintmask 0100000000010000
            -149 -104 callgsubr
            hintmask 0100010010000100
            152 30 callgsubr
            hintmask 0100000000100000
            147 -105 callsubr
            hintmask 0000001000001000
            return
          </CharString>
          <CharString index="174">
            107 hintmask 1001100011000000
            184 507 -26 callsubr
            hintmask 0100000011000000
            533 callsubr
            hintmask 1000000010000000
            579 callsubr
            hintmask 1000011000010000
            105 callsubr
            vlineto
            hintmask 0100000010000000
            -282 530 callgsubr
            420 callsubr
            hintmask 0100000001000000
            -149 -104 callgsubr
            hintmask 0100011000010000
            152 30 callgsubr
            hintmask 0100000010000000
            147 -105 callsubr
            hintmask 0000010100100000
            return
          </CharString>
          <CharString index="175">
            136 24 -62 -77 hvcurveto
            -265 vlineto
            -77 -22 -59 -138 vhcurveto
            return
          </CharString>
          <CharString index="176">
            -84 callgsubr
            vlineto
            return
          </CharString>
          <CharString index="177">
            110 10 110 return
          </CharString>
          <CharString index="178">
            3 237 callsubr
            41 452 callgsubr
            hintmask 11110110
            49 callsubr
            hintmask 11010110
            121 -107 callgsubr
            hintmask 11010100
            -528 -107 callsubr
            hintmask 11111100
            -23 callsubr
            hintmask 11010101
            367 callgsubr
            hintmask 11110110
            -205 -530 hlineto
            74 469 callgsubr
            hintmask 11010100
            -158 -107 callsubr
            -127 -104 callgsubr
            hintmask 11010110
            84 70 14 callgsubr
            hintmask 11010100
            202 callsubr
          </CharString>
          <CharString index="179">
            -274 hlineto
            -57 -35 -31 -50 hvcurveto
            -72 vlineto
            -40 27 -27 44 -4 vhcurveto
            213 -21 rlineto
            60 -6 29 -31 -54 vvcurveto
            -63 vlineto
            -56 -43 -35 -68 vhcurveto
            return
          </CharString>
          <CharString index="180">
            -77 -15 callgsubr
            122 hlineto
            23 4 -10 -11 hvcurveto
            -20 vlineto
            -11 -4 -10 -23 vhcurveto
            -83 121 rmoveto
            9 vlineto
            return
          </CharString>
          <CharString index="181">
            62 callsubr
            -311 44 callsubr
            return
          </CharString>
          <CharString index="182">
            51 -8 24 -3 27 3 rrcurveto
            return
          </CharString>
          <CharString index="183">
            84 156 callsubr
            return
          </CharString>
          <CharString index="184">
            119 -107 callgsubr
            -270 hlineto
            -52 -9 20 28 hvcurveto
            198 279 callgsubr
            270 -105 callsubr
            return
          </CharString>
          <CharString index="185">
            76 49 42 86 hvcurveto
            112 vlineto
            31 213 callsubr
            -31 hvcurveto
            return
          </CharString>
          <CharString index="186">
            rmoveto
            -22 5 -12 -15 -23 vvcurveto
            -106 vlineto
            -25 12 -5 24 -6 vhcurveto
            return
          </CharString>
          <CharString index="187">
            -154 -107 callsubr
            -192 vlineto
            return
          </CharString>
          <CharString index="188">
            42 18 14 40 56 vvcurveto
            46 vlineto
            99 -47 68 -150 vhcurveto
            return
          </CharString>
          <CharString index="189">
            vlineto
            181 callgsubr
            return
          </CharString>
          <CharString index="190">
            -295 rlineto
            -18 -19 -7 -17 -26 134 callgsubr
            return
          </CharString>
          <CharString index="191">
            369 callsubr
            hintmask 0111101001010000
            127 callsubr
            hintmask 0101100100010000
            -62 callsubr
            -261 vlineto
            -98 39 -74 144 -24 vhcurveto
            -150 -104 callgsubr
            hintmask 1001100110010000
            86 90 14 callgsubr
            hintmask 0101100100010000
            245 callgsubr
            hintmask 0111101001010000
            205 callgsubr
            hintmask 0101100110010000
            342 callsubr
            return
          </CharString>
          <CharString index="192">
            107 callsubr
            -193 vlineto
            -180 202 rlineto
            20 -17 -16 7 -26 hhcurveto
            -104 -41 callsubr
            return
          </CharString>
          <CharString index="193">
            -233 257 98 10 98 hstemhm
            40 90 160 90 vstemhm
            76 257 rmoveto
            268 104 callgsubr
            hintmask 01110000
            134 -73 callsubr
            -268 119 callgsubr
            214 108 rmoveto
            -10 vlineto
            hintmask 11110000
            -160 10 hlineto
            endchar
          </CharString>
          <CharString index="194">
            113 -107 callgsubr
            -273 hlineto
            -52 -9 20 28 hvcurveto
            28 vlineto
            return
          </CharString>
          <CharString index="195">
            142 callsubr
            vlineto
            return
          </CharString>
          <CharString index="196">
            rmoveto
            -218 -269 218 hlineto
            83 21 41 74 hvcurveto
            50 250 callsubr
            -24 362 callgsubr
            -292 14 callgsubr
            return
          </CharString>
          <CharString index="197">
            133 hlineto
            10 2 rlineto
            hintmask 10101011
            48 7 rlineto
            25 4 11 6 26 vvcurveto
            107 vlineto
            26 -11 14 -25 -4 vhcurveto
            hintmask 10101101
            -48 -7 rlineto
            -1 vlineto
            -10 -2 rlineto
            180 -107 callgsubr
            580 callsubr
            -216 vlineto
            -10 -2 rlineto
            hintmask 10110001
            -13 -2 rlineto
            -25 -4 -11 -7 -25 vvcurveto
            -107 vlineto
            -26 11 -14 25 4 vhcurveto
            hintmask 10101001
            23 4 rlineto
            -253 -104 callgsubr
            73 90 rmoveto
            301 vlineto
            hintmask 10110001
            -78 -13 rlineto
            10 vlineto
            hintmask 10101001
            78 13 rlineto
            229 10 vlineto
            hintmask 10101101
            -227 vlineto
            hintmask 10101011
            112 18 rlineto
            -10 vlineto
            hintmask 11101101
            -112 -18 rlineto
            -293 return
          </CharString>
          <CharString index="198">
            78 -57 71 4 70 -59 81 hstemhm
            return
          </CharString>
          <CharString index="199">
            90 hstemhm
            69 -7 callgsubr
            return
          </CharString>
          <CharString index="200">
            -196 202 60 9 70 240 66 9 219 callgsubr
            hintmask 1001010110000000
            182 callgsubr
            hintmask 1001010100000000
            155 callsubr
            hintmask 1011010100000000
            -87 -15 callgsubr
            hintmask 1011101110000000
            111 callsubr
            hintmask 1111011100000000
            497 callgsubr
            hintmask 1011010100000000
            -107 9 hlineto
            hintmask 1101010100000000
            498 callgsubr
            hintmask 1101010110000000
            110 hlineto
            endchar
          </CharString>
          <CharString index="201">
            -93 -14 29 -42 86 hhcurveto
            527 callgsubr
            142 callgsubr
            return
          </CharString>
          <CharString index="202">
            -89 callsubr
            -221 hlineto
            -52 -9 20 28 hvcurveto
            38 return
          </CharString>
          <CharString index="203">
            861 -76 callgsubr
            return
          </CharString>
          <CharString index="204">
            384 callgsubr
            -8 90 -72 109 return
          </CharString>
          <CharString index="205">
            -106 callgsubr
            hintmask 1110011000100000
            113 -107 callgsubr
            hintmask 1110011010100000
            -330 76 hlineto
            hintmask 1010011000100000
            249 -105 callsubr
            hintmask 1011011000100000
            171 callsubr
            hintmask 1011111010100000
            -249 67 hlineto
            hintmask 1010111000100000
            241 callsubr
            hintmask 1010011000100000
            113 -107 callgsubr
            -518 -41 callsubr
            hintmask 1110011000100000
            465 100 rmoveto
            -10 vlineto
            hintmask 1010011000100000
            258 callsubr
            hintmask 1011111011000000
            241 callgsubr
            hintmask 1110011010100000
            -302 -239 hlineto
            return
          </CharString>
          <CharString index="206">
            426 -105 callsubr
            return
          </CharString>
          <CharString index="207">
            rmoveto
            246 vlineto
            87 -43 60 -177 -177 -43 -60 -87 vhcurveto
            -246 vlineto
            -88 43 -59 177 177 43 59 88 vhcurveto
            -362 17 rmoveto
            212 vlineto
            58 29 39 112 113 31 -40 -57 vhcurveto
            -212 vlineto
            -58 -31 -40 -113 -112 -29 40 58 vhcurveto
            hintmask 11100111
            141 302 rmoveto
            -103 -31 -35 -55 hvcurveto
            -212 vlineto
            -55 31 -35 103 104 32 35 55 vhcurveto
            212 vlineto
            54 -32 36 -104 vhcurveto
            -57 -293 rmoveto
            194 vlineto
            18 9 15 49 50 8 -15 -18 vhcurveto
            -194 vlineto
            -19 -8 -15 -50 -49 -9 15 19 vhcurveto
            endchar
          </CharString>
          <CharString index="208">
            109 -107 callgsubr
            -332 hlineto
            -130 -77 -62 -114 hvcurveto
            -95 vlineto
            -112 61 -35 94 -14 vhcurveto
            return
          </CharString>
          <CharString index="209">
            214 callsubr
            228 hlineto
            92 48 45 74 hvcurveto
            72 vlineto
            64 -23 33 -68 8 vhcurveto
            return
          </CharString>
          <CharString index="210">
            -123 -104 callgsubr
            return
          </CharString>
          <CharString index="211">
            vlineto
            -106 callgsubr
            return
          </CharString>
          <CharString index="212">
            417 vlineto
            81 37 54 157 157 40 -54 -81 vhcurveto
            -417 return
          </CharString>
          <CharString index="213">
            403 141 callsubr
            return
          </CharString>
          <CharString index="214">
            -150 -107 callsubr
            return
          </CharString>
          <CharString index="215">
            116 callgsubr
            43 90 return
          </CharString>
          <CharString index="216">
            9 callsubr
            hintmask 1011110100001000
            137 -40 rlineto
            35 -11 7 6 36 vvcurveto
            81 vlineto
            147 callgsubr
          </CharString>
          <CharString index="217">
            93 10 269 callsubr
            return
          </CharString>
          <CharString index="218">
            67 -240 -81 51 callsubr
            -87 -15 callgsubr
            279 60 rmoveto
            -240 8 hlineto
            return
          </CharString>
          <CharString index="219">
            -145 hlineto
            -25 -11 -10 -26 hvcurveto
            -162 vlineto
            -122 return
          </CharString>
          <CharString index="220">
            -85 callsubr
            hintmask 0000000101000100
            -102 callsubr
            hintmask 0000001001000100
            -103 callgsubr
            hintmask 0000000101000100
            -99 callsubr
            hintmask 0000001000000100
            83 -27 rlineto
            return
          </CharString>
          <CharString index="221">
            83 -27 rlineto
            135 130 rmoveto
            50 7 31 21 59 vvcurveto
            64 vlineto
            67 -40 35 -68 vhcurveto
            return
          </CharString>
          <CharString index="222">
            -305 -120 178 callgsubr
            return
          </CharString>
          <CharString index="223">
            vvcurveto
            192 -107 callgsubr
            return
          </CharString>
          <CharString index="224">
            112 10 112 return
          </CharString>
          <CharString index="225">
            90 -90 262 220 callsubr
            169 93 10 90 81 77 10 89 209 callgsubr
            return
          </CharString>
          <CharString index="226">
            42 0 192 callgsubr
            137 103 10 104 hintmask 10111001
            614 -88 callgsubr
            hintmask 11111001
            315 328 callgsubr
            7 callgsubr
            hintmask 10111001
            -155 45 callsubr
            10 vlineto
            hintmask 11111111
            184 callgsubr
            hintmask 10111001
            -207 vlineto
            endchar
          </CharString>
          <CharString index="227">
            vlineto
            95 32 36 128 vhcurveto
            236 -10 hlineto
            return
          </CharString>
          <CharString index="228">
            152 hlineto
            26 10 -97 callgsubr
            456 253 callgsubr
            return
          </CharString>
          <CharString index="229">
            54 81 vhcurveto
            295 vlineto
            return
          </CharString>
          <CharString index="230">
            660 -94 callsubr
            hintmask 1010011101001000
            93 -107 callgsubr
            -347 -107 callsubr
            hintmask 1010011001000100
            -93 -104 callgsubr
            hintmask 1010011101001000
            54 callgsubr
            hintmask 1010011001000100
            266 callsubr
          </CharString>
          <CharString index="231">
            hvcurveto
            47 -152 rlineto
            -157 hlineto
            277 -268 rmoveto
            hintmask 010000000001001000000000
            300 callgsubr
            hintmask 100001000100000010000000
            -100 callgsubr
            vlineto
            319 callgsubr
            -297 547 callsubr
            151 callsubr
            440 callgsubr
            4 callgsubr
            return
          </CharString>
          <CharString index="232">
            -152 hlineto
            -25 -11 341 callsubr
            -57 -58 -10 20 27 vhcurveto
            456 vlineto
            25 -10 11 -26 vhcurveto
            return
          </CharString>
          <CharString index="233">
            -154 -107 callsubr
            -240 537 callgsubr
            -68 -67 195 callsubr
            240 -107 callgsubr
            return
          </CharString>
          <CharString index="234">
            -154 -107 callsubr
            -220 vlineto
            -27 -11 -20 -63 -62 -11 20 27 vhcurveto
            220 -107 callgsubr
            return
          </CharString>
          <CharString index="235">
            -117 hlineto
            -26 -10 417 callsubr
            -7 -13 -26 -26 -6 13 27 vhcurveto
            423 -107 callgsubr
            return
          </CharString>
          <CharString index="236">
            192 -11 rlineto
            17 -2 9 -4 206 callgsubr
            return
          </CharString>
          <CharString index="237">
            -377 160 callsubr
            return
          </CharString>
          <CharString index="238">
            0 232 callgsubr
            return
          </CharString>
          <CharString index="239">
            90 10 89 86 84 return
          </CharString>
          <CharString index="240">
            -106 callgsubr
            118 vlineto
            146 205 333 callsubr
            30 52 vvcurveto
            162 -107 callgsubr
            return
          </CharString>
          <CharString index="241">
            92 10 91 362 92 return
          </CharString>
          <CharString index="242">
            310 callsubr
            hintmask 1010010100100000
            158 callgsubr
          </CharString>
          <CharString index="243">
            rmoveto
            -16 callsubr
            return
          </CharString>
          <CharString index="244">
            -389 hlineto
            -22 -9 10 23 hvcurveto
            16 vlineto
            15 7 10 10 12 vhcurveto
            371 336 rlineto
            12 10 2 8 13 vvcurveto
            14 vlineto
            19 -10 4 -11 vhcurveto
            return
          </CharString>
          <CharString index="245">
            417 vlineto
            261 callgsubr
            43 -54 -81 vhcurveto
            -508 24 274 callgsubr
            return
          </CharString>
          <CharString index="246">
            265 -88 callgsubr
            648 -107 callgsubr
            return
          </CharString>
          <CharString index="247">
            134 callsubr
            -14 102 -78 93 -2 68 384 callgsubr
            return
          </CharString>
          <CharString index="248">
            183 callgsubr
            105 vlineto
            return
          </CharString>
          <CharString index="249">
            43 callsubr
            382 callsubr
            return
          </CharString>
          <CharString index="250">
            59 hlineto
            72 7 31 34 hvcurveto
            49 vlineto
            36 -16 29 -70 vhcurveto
            -111 9 hlineto
            return
          </CharString>
          <CharString index="251">
            9 206 rmoveto
            132 -87 hlineto
            -54 -30 -27 -48 vhcurveto
            return
          </CharString>
          <CharString index="252">
            -87 30 -32 120 vhcurveto
            return
          </CharString>
          <CharString index="253">
            rmoveto
            -90 -58 -49 -102 hvcurveto
            -188 -104 callgsubr
            202 -105 callsubr
            hintmask 11101010
            148 -107 callgsubr
            hintmask 11101110
            -109 15 hlineto
            18 9 10 18 vhcurveto
            69 -105 callsubr
            hintmask 10111010
            377 callsubr
            -155 -270 rmoveto
            119 vlineto
            61 34 30 54 vhcurveto
            46 -10 hlineto
            hintmask 11101110
            -46 hlineto
            -48 -30 -27 -54 hvcurveto
            -109 124 -10 vlineto
            endchar
          </CharString>
          <CharString index="254">
            -102 callsubr
            hintmask 1011101010010000
            -103 callgsubr
            hintmask 1011111010010000
            -99 callsubr
            hintmask 1011101000010000
            255 callgsubr
          </CharString>
          <CharString index="255">
            69 31 17 52 hvcurveto
            146 vlineto
            52 -31 18 -69 -68 -33 -18 -52 vhcurveto
            -146 vlineto
            -52 33 -17 68 vhcurveto
            return
          </CharString>
          <CharString index="256">
            83 0 177 callsubr
            return
          </CharString>
          <CharString index="257">
            119 -107 callgsubr
            -201 hlineto
            return
          </CharString>
          <CharString index="258">
            140 177 vlineto
            return
          </CharString>
          <CharString index="259">
            hvcurveto
            -121 vlineto
            return
          </CharString>
          <CharString index="260">
            vlineto
            115 266 rlineto
            11 hlineto
            -115 -266 rlineto
            41 hlineto
            82 39 -28 -70 hvcurveto
            -176 -10 vlineto
            return
          </CharString>
          <CharString index="261">
            -146 vlineto
            -58 -31 -21 -79 -78 -33 21 58 vhcurveto
            146 vlineto
            58 33 22 78 79 31 -22 -58 vhcurveto
            return
          </CharString>
          <CharString index="262">
            -69 353 hlineto
            209 callsubr
            -209 51 callsubr
            return
          </CharString>
          <CharString index="263">
            -15 165 callsubr
            return
          </CharString>
          <CharString index="264">
            64 10 64 15 70 return
          </CharString>
          <CharString index="265">
            54 hlineto
            42 26 24 47 hvcurveto
            77 -122 vlineto
            endchar
          </CharString>
          <CharString index="266">
            42 18 14 40 56 vvcurveto
            36 vlineto
            99 -47 68 -150 vhcurveto
            -322 -41 callsubr
            return
          </CharString>
          <CharString index="267">
            vlineto
            -81 -43 -54 -153 -147 -40 54 81 vhcurveto
            return
          </CharString>
          <CharString index="268">
            55 0 200 callsubr
            return
          </CharString>
          <CharString index="269">
            164 -13 vlineto
            -33 -20 12 30 -20 hvcurveto
            -87 131 rlineto
            -12 18 -3 16 43 vvcurveto
            86 10 vlineto
            return
          </CharString>
          <CharString index="270">
            hlineto
            68 callsubr
            hintmask 1010010101010000
            return
          </CharString>
          <CharString index="271">
            90 -90 251 -86 86 10 87 156 88 10 93 return
          </CharString>
          <CharString index="272">
            134 callsubr
            10 93 return
          </CharString>
          <CharString index="273">
            147 365 callsubr
          </CharString>
          <CharString index="274">
            61 24 -27 -51 hvcurveto
            -49 vlineto
            -44 -14 -29 -81 vhcurveto
            -159 9 hlineto
            return
          </CharString>
          <CharString index="275">
            0 217 callsubr
            return
          </CharString>
          <CharString index="276">
            396 callsubr
            51 90 -90 109 return
          </CharString>
          <CharString index="277">
            83 vlineto
            -362 404 rlineto
            -2 2 -1 1 -2 -2 0 -2 0 hflex1
            -487 -10 vlineto
            return
          </CharString>
          <CharString index="278">
            95 -73 callsubr
            return
          </CharString>
          <CharString index="279">
            152 hlineto
            26 10 -97 callgsubr
            416 vlineto
            27 12 20 62 61 12 -20 -27 vhcurveto
            -416 -104 callgsubr
            return
          </CharString>
          <CharString index="280">
            145 callgsubr
            -240 295 callgsubr
            return
          </CharString>
          <CharString index="281">
            -148 -104 callgsubr
            return
          </CharString>
          <CharString index="282">
            54 71 rmoveto
            10 vlineto
            return
          </CharString>
          <CharString index="283">
            697 -85 callsubr
            return
          </CharString>
          <CharString index="284">
            90 -90 271 -86 86 10 87 176 88 10 return
          </CharString>
          <CharString index="285">
            85 -43 58 -174 -174 -43 -58 -85 vhcurveto
            return
          </CharString>
          <CharString index="286">
            -105 callsubr
            455 vlineto
            return
          </CharString>
          <CharString index="287">
            vvcurveto
            115 10 vlineto
            return
          </CharString>
          <CharString index="288">
            169 callsubr
            10 108 return
          </CharString>
          <CharString index="289">
            309 -107 callgsubr
            return
          </CharString>
          <CharString index="290">
            90 568 callgsubr
            return
          </CharString>
          <CharString index="291">
            152 -105 callsubr
            return
          </CharString>
          <CharString index="292">
            77 0 118 callsubr
            return
          </CharString>
          <CharString index="293">
            377 vlineto
            81 42 54 150 150 41 -54 -81 vhcurveto
            -490 24 rmoveto
            208 callgsubr
            return
          </CharString>
          <CharString index="294">
            481 257 98 10 98 hstemhm
            70 90 814 90 vstemhm
            106 257 rmoveto
            922 104 callgsubr
            hintmask 01110000
            134 -73 callsubr
            -922 119 callgsubr
            868 108 rmoveto
            -10 vlineto
            hintmask 11110000
            -814 10 hlineto
            endchar
          </CharString>
          <CharString index="295">
            807 154 rmoveto
            410 vlineto
            147 -72 100 -301 -300 -74 -100 -147 vhcurveto
            -410 vlineto
            -146 74 -99 300 301 72 99 146 vhcurveto
            -45 414 rmoveto
            -418 vlineto
            -103 -47 -95 -281 -281 -48 85 113 vhcurveto
            418 vlineto
            104 30 96 299 299 29 -96 -104 vhcurveto
            return
          </CharString>
          <CharString index="296">
            -246 -259 hlineto
            return
          </CharString>
          <CharString index="297">
            -121 -6 callgsubr
            276 hlineto
            17 10 -9 -19 -20 -7 -8 -20 -3 hvcurveto
            -199 -28 -25 -3 -12 -12 4 -26 rlinecurve
            21 -132 4 -25 10 -9 25 3 rlinecurve
            40 104 rmoveto
            -2 11 216 29 rlineto
            25 4 24 5 35 vvcurveto
            113 vlineto
            65 -43 16 -41 vhcurveto
            -269 10 hlineto
            return
          </CharString>
          <CharString index="298">
            35 5 6 35 2 hvcurveto
            8 293 rlineto
            35 1 -6 6 -34 hhcurveto
            return
          </CharString>
          <CharString index="299">
            166 callgsubr
            95 vlineto
            112 -62 35 -94 14 vhcurveto
            return
          </CharString>
          <CharString index="300">
            -152 -107 callsubr
            return
          </CharString>
          <CharString index="301">
            742 -15 rmoveto
            212 52 273 callgsubr
            return
          </CharString>
          <CharString index="302">
            -12 20 27 vhcurveto
            return
          </CharString>
          <CharString index="303">
            -285 -255 251 callsubr
            504 rmoveto
            return
          </CharString>
          <CharString index="304">
            157 179 callsubr
            122 -52 82 -248 -248 -52 -82 -122 vhcurveto
            return
          </CharString>
          <CharString index="305">
            578 callgsubr
            -11 90 -69 460 callgsubr
            return
          </CharString>
          <CharString index="306">
            vlineto
            179 callgsubr
            return
          </CharString>
          <CharString index="307">
            90 10 259 callsubr
            return
          </CharString>
          <CharString index="308">
            -328 -606 rmoveto
            265 53 89 99 hvcurveto
            418 vlineto
            100 -33 90 -285 -285 -34 -90 -100 vhcurveto
            -418 vlineto
            -109 54 -79 265 vhcurveto
            273 188 rmoveto
            -86 -53 -59 -220 -220 -54 59 86 vhcurveto
            418 vlineto
            87 54 60 220 220 53 -60 -87 vhcurveto
            return
          </CharString>
          <CharString index="309">
            59 10 vlineto
            endchar
          </CharString>
          <CharString index="310">
            -349 43 rlineto
            -23 3 -11 -13 -23 vvcurveto
            -96 vlineto
            -25 11 -8 25 -3 vhcurveto
            175 callsubr
            return
          </CharString>
          <CharString index="311">
            417 vlineto
            75 -41 50 -149 -149 -42 -50 -75 vhcurveto
            475 callgsubr
            return
          </CharString>
          <CharString index="312">
            -191 10 rlineto
            -17 2 -10 7 18 vvcurveto
            18 10 12 17 vhcurveto
            return
          </CharString>
          <CharString index="313">
            75 -41 67 -18 76 -50 68 90 67 -49 75 -18 68 -42 76 return
          </CharString>
          <CharString index="314">
            90 rmoveto
            530 -205 10 vlineto
            return
          </CharString>
          <CharString index="315">
            -40 -6 callgsubr
            return
          </CharString>
          <CharString index="316">
            18 -8 8 -18 vhcurveto
            return
          </CharString>
          <CharString index="317">
            -371 -336 239 callsubr
            return
          </CharString>
          <CharString index="318">
            583 callgsubr
            272 vlineto
            121 -57 83 -189 vhcurveto
            -323 -41 callsubr
            73 90 rmoveto
            500 228 vlineto
            136 24 -62 -77 hvcurveto
            -225 vlineto
            -77 -22 -59 -138 vhcurveto
            return
          </CharString>
          <CharString index="319">
            128 vlineto
            0 8 5 9 29 28 5 -9 0 hflex1
            -128 vlineto
            return
          </CharString>
          <CharString index="320">
            -9 9 -28 vhcurveto
            -158 hlineto
            -28 -9 -9 return
          </CharString>
          <CharString index="321">
            -84 -15 callgsubr
            return
          </CharString>
          <CharString index="322">
            0 90 -90 242 220 callsubr
            149 93 10 90 return
          </CharString>
          <CharString index="323">
            vlineto
            21 11 -12 -22 hvcurveto
            -195 -104 callgsubr
            return
          </CharString>
          <CharString index="324">
            90 10 91 296 93 10 90 return
          </CharString>
          <CharString index="325">
            64 9 63 62 59 7 32 -30 61 54 64 9 64 hstemhm
            49 232 callsubr
            hintmask 1110001101001000
            75 return
          </CharString>
          <CharString index="326">
            94 27 278 callgsubr
            return
          </CharString>
          <CharString index="327">
            -86 86 10 86 return
          </CharString>
          <CharString index="328">
            304 callgsubr
            608 -107 callgsubr
            return
          </CharString>
          <CharString index="329">
            -37 -70 hvcurveto
            -134 -10 vlineto
            return
          </CharString>
          <CharString index="330">
            -23 51 callsubr
            -86 -15 callgsubr
            138 147 rmoveto
            -63 -36 -18 -63 vhcurveto
            7 vlineto
            hintmask 01101100
            57 35 15 59 hvcurveto
            339 vlineto
            hintmask 10101010
            59 -34 16 -58 vhcurveto
            7 vlineto
            hintmask 10011010
            64 35 -18 -64 hvcurveto
            endchar
          </CharString>
          <CharString index="331">
            500 228 vlineto
            78 36 -48 -66 hvcurveto
            -49 vlineto
            -61 -12 -40 -48 -15 vhcurveto
            11 hlineto
            return
          </CharString>
          <CharString index="332">
            hlineto
            -106 callsubr
            return
          </CharString>
          <CharString index="333">
            131 callgsubr
            -74 return
          </CharString>
          <CharString index="334">
            196 480 -196 10 hlineto
            return
          </CharString>
          <CharString index="335">
            -25 156 callgsubr
            return
          </CharString>
          <CharString index="336">
            250 callgsubr
            10 108 return
          </CharString>
          <CharString index="337">
            467 251 callgsubr
            return
          </CharString>
          <CharString index="338">
            vlineto
            -79 -41 -56 -148 -158 -39 55 80 vhcurveto
            84 10 vlineto
            return
          </CharString>
          <CharString index="339">
            65 -6 65 64 74 -28 76 -39 74 -26 75 return
          </CharString>
          <CharString index="340">
            34 225 callgsubr
            return
          </CharString>
          <CharString index="341">
            -172 -10 vlineto
            return
          </CharString>
          <CharString index="342">
            rmoveto
            -93 callgsubr
            hintmask 0001010000100000
            -98 callsubr
            return
          </CharString>
          <CharString index="343">
            64 9 63 246 63 9 64 hstemhm
            40 291 callsubr
            hintmask 1001100001000000
            408 return
          </CharString>
          <CharString index="344">
            -240 199 return
          </CharString>
          <CharString index="345">
            172 callgsubr
            hintmask 1101000110101000
            314 callgsubr
            hintmask 1001000110100100
            return
          </CharString>
          <CharString index="346">
            rlineto
            -10 -12 -4 -6 -13 vvcurveto
            -14 vlineto
            -19 10 -4 11 vhcurveto
            389 -10 hlineto
            return
          </CharString>
          <CharString index="347">
            vlineto
            75 -39 50 -142 -142 -40 -50 -75 vhcurveto
            return
          </CharString>
          <CharString index="348">
            330 -105 callsubr
            return
          </CharString>
          <CharString index="349">
            764 -88 callgsubr
            return
          </CharString>
          <CharString index="350">
            108 -62 116 -44 109 return
          </CharString>
          <CharString index="351">
            hstemhm
            196 109 -15 90 -65 495 callsubr
            return
          </CharString>
          <CharString index="352">
            -94 callsubr
            608 -107 callgsubr
            return
          </CharString>
          <CharString index="353">
            189 57 83 121 hvcurveto
            return
          </CharString>
          <CharString index="354">
            108 108 return
          </CharString>
          <CharString index="355">
            rmoveto
            35 7 6 35 hvcurveto
            293 vlineto
            35 -5 6 -34 vhcurveto
            hintmask 11100000
            -155 hlineto
            -35 -5 -6 -35 hvcurveto
            -293 vlineto
            -35 7 -6 35 vhcurveto
            70 285 rmoveto
            10 hlineto
            hintmask 11110000
            -195 -10 vlineto
            endchar
          </CharString>
          <CharString index="356">
            -297 -54 rmoveto
            return
          </CharString>
          <CharString index="357">
            vlineto
            279 callsubr
            -110 -80 rmoveto
            64 hlineto
            35 9 -20 -27 hvcurveto
            return
          </CharString>
          <CharString index="358">
            rlineto
            -18 -19 -7 -17 -26 134 callgsubr
            449 return
          </CharString>
          <CharString index="359">
            6 callgsubr
            282 callsubr
            return
          </CharString>
          <CharString index="360">
            -15 92 10 91 322 92 10 93 return
          </CharString>
          <CharString index="361">
            95 hlineto
            17 9 9 17 hvcurveto
            381 vlineto
            18 -9 8 -17 vhcurveto
            -95 hlineto
            -15 -9 -6 -14 -8 hvcurveto
            -15 -30 -21 -36 -16 -30 rrcurveto
            -3 -2 -3 -4 -1 hhcurveto
            -5 hlineto
            -3 -1 2 5 -3 hvcurveto
            return
          </CharString>
          <CharString index="362">
            115 callsubr
            endchar
          </CharString>
          <CharString index="363">
            -14 callsubr
            hstemhm
            return
          </CharString>
          <CharString index="364">
            303 callgsubr
            -122 return
          </CharString>
          <CharString index="365">
            -393 500 393 -10 hlineto
            return
          </CharString>
          <CharString index="366">
            89 102 90 146 93 10 90 return
          </CharString>
          <CharString index="367">
            217 -107 callgsubr
            return
          </CharString>
          <CharString index="368">
            109 -7 90 -73 109 return
          </CharString>
          <CharString index="369">
            -540 -10 vlineto
            return
          </CharString>
          <CharString index="370">
            -340 -93 callsubr
            return
          </CharString>
          <CharString index="371">
            -1101 -93 callsubr
            return
          </CharString>
          <CharString index="372">
            rmoveto
            151 48 348 callgsubr
            455 -107 callgsubr
            return
          </CharString>
          <CharString index="373">
            -239 hlineto
            endchar
          </CharString>
          <CharString index="374">
            109 10 110 return
          </CharString>
          <CharString index="375">
            144 285 callsubr
            144 return
          </CharString>
          <CharString index="376">
            93 449 90 return
          </CharString>
          <CharString index="377">
            21 40 21 86 18.5 79.5 18.5 73.5 21 82.5 21 -10.5 21 18 21 return
          </CharString>
          <CharString index="378">
            165 callsubr
            380 callsubr
            return
          </CharString>
          <CharString index="379">
            hstemhm
            209 90 -9 90 -1 116 10 116 return
          </CharString>
          <CharString index="380">
            496 callgsubr
            174 43 58 85 vhcurveto
            return
          </CharString>
          <CharString index="381">
            12 83 4 26 4 10 16 12 rlinecurve
            return
          </CharString>
          <CharString index="382">
            90 168 97 10 102 163 90 return
          </CharString>
          <CharString index="383">
            -196 -480 196 hlineto
            return
          </CharString>
          <CharString index="384">
            402 callsubr
            -54 103 return
          </CharString>
          <CharString index="385">
            38 10 37 37 74 10 74 return
          </CharString>
          <CharString index="386">
            62 -33 42 -71 vhcurveto
            return
          </CharString>
          <CharString index="387">
            329 callgsubr
            -269 hlineto
            72 -354 -94 callsubr
            229 132 216 callsubr
            return
          </CharString>
          <CharString index="388">
            -80 91 10 90 496 553 callsubr
            return
          </CharString>
          <CharString index="389">
            81 77 10 89 return
          </CharString>
          <CharString index="390">
            99 vlineto
            30 -17 11 -35 -10 vhcurveto
            -83 -25 -6 -4 -125 18 rrcurveto
            hintmask 1001100111000000
            -31 4 -24 3 -114 17 -19 7 -103 -36 rlinecurve
            -20 -7 -17 -11 -35 vvcurveto
            return
          </CharString>
          <CharString index="391">
            411 callsubr
            -44 117 callsubr
            -43 108 return
          </CharString>
          <CharString index="392">
            104 callsubr
            hintmask 10101100
            121 -107 callgsubr
            hintmask 10101000
            -528 -107 callsubr
            hintmask 11111000
            -121 -104 callgsubr
            return
          </CharString>
          <CharString index="393">
            76 callsubr
            66 77 10 89 return
          </CharString>
          <CharString index="394">
            20 40 20 10 81 callgsubr
            10 20 40 20 return
          </CharString>
          <CharString index="395">
            77 89 10 90 return
          </CharString>
          <CharString index="396">
            718 rmoveto
            25 3 11 8 25 vvcurveto
            96 vlineto
            23 -11 13 -23 -3 vhcurveto
            -349 -43 rlineto
            -25 -3 -11 -8 -25 vvcurveto
            -96 vlineto
            -23 11 -13 23 3 vhcurveto
            return
          </CharString>
          <CharString index="397">
            142 callgsubr
            274 callsubr
            return
          </CharString>
          <CharString index="398">
            77 -50 65 -6 77 46 96 10 77 -63 65 return
          </CharString>
          <CharString index="399">
            -201 -208 vlineto
            439 callgsubr
            return
          </CharString>
          <CharString index="400">
            171 callsubr
            -249 67 hlineto
            return
          </CharString>
          <CharString index="401">
            462 callsubr
            409 90 return
          </CharString>
          <CharString index="402">
            83 24 44 32 99 vvcurveto
            72 vlineto
            99 -44 32 -83 24 vhcurveto
            -381 109 rlineto
            -25 5 -11 -10 -26 vvcurveto
            -132 vlineto
            -26 11 -11 25 -4 vhcurveto
            return
          </CharString>
          <CharString index="403">
            33 rmoveto
            23 -3 11 13 23 vvcurveto
            96 vlineto
            25 -11 8 -25 3 vhcurveto
            -349 43 rlineto
            -23 3 -11 -13 -23 vvcurveto
            -96 vlineto
            -25 11 -8 25 -3 vhcurveto
            return
          </CharString>
          <CharString index="404">
            hlineto
            -136 -56 -65 -88 hvcurveto
            -48 vlineto
            -51 15 -38 44 -19 vhcurveto
            hintmask 101001001100100110000000
            -72 -7 -54 -54 -94 vvcurveto
            -80 vlineto
            -107 66 -69 123 vhcurveto
            return
          </CharString>
          <CharString index="405">
            -89 callsubr
            -464 -99 callgsubr
            hintmask 0100000000000010
            410 100 rmoveto
            -10 vlineto
            return
          </CharString>
          <CharString index="406">
            vlineto
            -27 -9 -20 -67 -71 -7 20 27 vhcurveto
            122 -73 callsubr
            return
          </CharString>
          <CharString index="407">
            hlineto
            75 29 26 62 hvcurveto
            88 vlineto
            63 -33 25 -62 vhcurveto
            return
          </CharString>
          <CharString index="408">
            87 10 90 hstemhm
            69 112 10 103 137 106 10 return
          </CharString>
          <CharString index="409">
            131 callsubr
            hstemhm
            return
          </CharString>
          <CharString index="410">
            0 90 116 129 10 145 return
          </CharString>
          <CharString index="411">
            90 347 callsubr
            return
          </CharString>
          <CharString index="412">
            -202 hlineto
            -25 -11 return
          </CharString>
          <CharString index="413">
            hlineto
            116 63 69 107 hvcurveto
            45 vlineto
            hintmask 101010001100100101000000
            23 -105 callsubr
            hintmask 110010001100100101000000
            108 -73 callsubr
            return
          </CharString>
          <CharString index="414">
            73 vmoveto
            -7 vlineto
            hintmask 10011010
            -63 -36 18 63 hvcurveto
            339 vlineto
            64 35 18 64 vhcurveto
            -7 vlineto
            hintmask 01100110
            -58 -34 -16 -59 hvcurveto
            -339 vlineto
            return
          </CharString>
          <CharString index="415">
            186 rmoveto
            10 vlineto
            hintmask 10010101
            98 -86 hlineto
            -39 -17 -35 -39 vhcurveto
            -41 10 hlineto
            hintmask 11111011
            41 hlineto
            33 13 31 33 hvcurveto
            76 vlineto
            endchar
          </CharString>
          <CharString index="416">
            rmoveto
            23 -3 113 -17 21 -7 103 36 rlinecurve
            18 7 19 11 35 vvcurveto
            return
          </CharString>
          <CharString index="417">
            653 rmoveto
            23 -3 11 13 23 vvcurveto
            96 vlineto
            25 -11 8 -25 3 vhcurveto
            return
          </CharString>
          <CharString index="418">
            95 32 36 128 vhcurveto
            181 -10 hlineto
            return
          </CharString>
          <CharString index="419">
            50 -39 39 73 49 10 50 return
          </CharString>
          <CharString index="420">
            620 rmoveto
            -218 return
          </CharString>
          <CharString index="421">
            hlineto
            53 30 27 54 hvcurveto
            hintmask 100010001100100101000000
            135 75 -10 vlineto
            hintmask 101010001100100110000000
            -65 -125 hlineto
            -62 -34 -29 -59 vhcurveto
            endchar
          </CharString>
          <CharString index="422">
            94 -15 134 callsubr
            -14 102 -78 93 return
          </CharString>
          <CharString index="423">
            70 35 -29 -69 hvcurveto
            -88 vlineto
            -68 -31 -30 -83 vhcurveto
            return
          </CharString>
          <CharString index="424">
            -149 -35 -50 -75 vhcurveto
            return
          </CharString>
          <CharString index="425">
            -24 -9 5 -16 34 hhcurveto
            return
          </CharString>
          <CharString index="426">
            90 548 callsubr
            65 90 10 89 65 89 10 90 hintmask 1011001010000000
            649 -15 rmoveto
            151 48 348 callgsubr
            return
          </CharString>
          <CharString index="427">
            64 8 64 61 64 8 65 47 64 8 65 hstemhm
            55 64 -57 77 8 78 61 78 -5 65 -52 78 hintmask 1010010100010000
            309 return
          </CharString>
          <CharString index="428">
            328 callgsubr
            -62 callsubr
            return
          </CharString>
          <CharString index="429">
            -106 vlineto
            -23 17 -11 34 9 vhcurveto
            75 23 23 6 108 -16 rrcurveto
            return
          </CharString>
          <CharString index="430">
            70 75 49 10 70 return
          </CharString>
          <CharString index="431">
            -157 -43 54 81 return
          </CharString>
          <CharString index="432">
            47 10 vlineto
            endchar
          </CharString>
          <CharString index="433">
            vvcurveto
            -48 vlineto
            -51 15 -38 44 -19 vhcurveto
            hintmask 010110101100010010000000
            -72 -7 -54 -54 -94 vvcurveto
            -108 vlineto
            -85 66 -63 128 vhcurveto
            return
          </CharString>
          <CharString index="434">
            -246 200 vlineto
            115 246 rlineto
            11 hlineto
            -115 -246 rlineto
            41 hlineto
            82 39 -28 -70 hvcurveto
            -156 -10 vlineto
            return
          </CharString>
          <CharString index="435">
            hstemhm
            201 -7 callgsubr
            return
          </CharString>
          <CharString index="436">
            74 -8 21 -29 -37 vvcurveto
            -66 vlineto
            return
          </CharString>
          <CharString index="437">
            vlineto
            144 24 39 74 98 vvcurveto
            return
          </CharString>
          <CharString index="438">
            -120 399 callsubr
            return
          </CharString>
          <CharString index="439">
            117 callgsubr
            endchar
          </CharString>
          <CharString index="440">
            rlineto
            30 41 8 return
          </CharString>
          <CharString index="441">
            65 8 64 48 58 8 53 95 62 8 60 hstemhm
            47 78 -23 62 -31 77 97 78 8 77 hintmask 1010011000100000
            293 return
          </CharString>
          <CharString index="442">
            rlineto
            -27 -70 -12 -50 -40 vvcurveto
            15 callgsubr
            319 callgsubr
            147 -105 callsubr
            return
          </CharString>
          <CharString index="443">
            rmoveto
            -10 vlineto
            -300 86 rlineto
            -34 10 -24 17 44 vvcurveto
            72 vlineto
            44 24 14 34 10 vhcurveto
            300 86 rlineto
            -10 vlineto
            return
          </CharString>
          <CharString index="444">
            hstemhm
            196 109 10 495 callsubr
            10 108 return
          </CharString>
          <CharString index="445">
            318 591 rmoveto
            6 2 -2 -7 7 hvcurveto
            return
          </CharString>
          <CharString index="446">
            418 callsubr
            234 callsubr
            return
          </CharString>
          <CharString index="447">
            352 -394 rlineto
            402 10 vlineto
            return
          </CharString>
          <CharString index="448">
            -11 -25 hvcurveto
            -456 vlineto
            -27 -10 -20 return
          </CharString>
          <CharString index="449">
            -183 vlineto
            -81 -42 -54 -145 vhcurveto
            return
          </CharString>
          <CharString index="450">
            hstemhm
            51 378 callgsubr
            return
          </CharString>
          <CharString index="451">
            rlineto
            318 callsubr
            return
          </CharString>
          <CharString index="452">
            118 22 51 72 hvcurveto
            return
          </CharString>
          <CharString index="453">
            -186 70 10 60 return
          </CharString>
          <CharString index="454">
            rmoveto
            389 callgsubr
            return
          </CharString>
          <CharString index="455">
            hintmask 1001100110100100
            790 -112 rmoveto
            hintmask 1101100110100100
            172 callgsubr
            hintmask 1111100110101000
            314 callgsubr
            return
          </CharString>
          <CharString index="456">
            160 207 rmoveto
            12 5 6 88 callgsubr
            6 -5 -12 5 hvcurveto
            47 -152 rlineto
            -157 hlineto
            return
          </CharString>
          <CharString index="457">
            89 10 76 hstemhm
            return
          </CharString>
          <CharString index="458">
            510 callsubr
            -50 90 25 90 10 89 25 90 -50 89 10 90 return
          </CharString>
          <CharString index="459">
            245 59 348 callgsubr
            428 callgsubr
            return
          </CharString>
          <CharString index="460">
            112 callsubr
            56 return
          </CharString>
          <CharString index="461">
            -10 373 callgsubr
            return
          </CharString>
          <CharString index="462">
            240 60 348 callgsubr
            -490 401 rmoveto
            10 hlineto
            return
          </CharString>
          <CharString index="463">
            12 4 4 12 vhcurveto
            return
          </CharString>
          <CharString index="464">
            57 66 42 10 57 return
          </CharString>
          <CharString index="465">
            -12 -4 -4 -12 vhcurveto
            return
          </CharString>
          <CharString index="466">
            12 4 -4 -12 hvcurveto
            return
          </CharString>
          <CharString index="467">
            -362 rmoveto
            -55 callgsubr
            return
          </CharString>
          <CharString index="468">
            7 156 callgsubr
            return
          </CharString>
          <CharString index="469">
            892 63 callgsubr
            rrcurveto
            return
          </CharString>
          <CharString index="470">
            275 callsubr
            hstemhm
            return
          </CharString>
          <CharString index="471">
            vlineto
            66 -14 32 -76 vhcurveto
            -283 hlineto
            72 return
          </CharString>
          <CharString index="472">
            -105 callsubr
            endchar
          </CharString>
          <CharString index="473">
            -122 61 -82 return
          </CharString>
          <CharString index="474">
            550 callsubr
            147 267 callsubr
            hintmask 10110010
            690 90 14 callgsubr
            hintmask 11111110
            return
          </CharString>
          <CharString index="475">
            27 95 rlineto
            5 14 2 3 12 12 2 -4 5 hflex1
            28 -95 rlineto
            -23 9 14 -13 26 hhcurveto
            return
          </CharString>
          <CharString index="476">
            -106 callgsubr
            150 330 callsubr
            261 -107 callgsubr
            return
          </CharString>
          <CharString index="477">
            472 vlineto
            13 -7 6 -11 vhcurveto
            -95 hlineto
            -11 -7 -6 -13 hvcurveto
            -472 vlineto
            -12 7 -7 11 vhcurveto
            return
          </CharString>
          <CharString index="478">
            93 10 90 hstemhm
            209 90 80 116 10 116 return
          </CharString>
          <CharString index="479">
            40 -5 23 -3 90 -14 32 -7 61 17 rlinecurve
            -11 vlineto
            return
          </CharString>
          <CharString index="480">
            -10 -14 callsubr
            return
          </CharString>
          <CharString index="481">
            81 callgsubr
            hintmask 10110100
            return
          </CharString>
          <CharString index="482">
            489 536 callsubr
            vhcurveto
            return
          </CharString>
          <CharString index="483">
            93 10 93 hstemhm
            64 107 10 107 return
          </CharString>
          <CharString index="484">
            40 -73 callsubr
            return
          </CharString>
          <CharString index="485">
            rmoveto
            68 -33 35 -43 9 vhcurveto
            return
          </CharString>
          <CharString index="486">
            317 callgsubr
            vhcurveto
            return
          </CharString>
          <CharString index="487">
            hstemhm
            58 237 callgsubr
            return
          </CharString>
          <CharString index="488">
            436 callgsubr
            90 return
          </CharString>
          <CharString index="489">
            96 90 rmoveto
            95 10 return
          </CharString>
          <CharString index="490">
            hlineto
            -189 -57 -83 return
          </CharString>
          <CharString index="491">
            83 -62 111 -39 81.5 -32.5 110 -94 90 hintmask 1011100010000000
            return
          </CharString>
          <CharString index="492">
            vlineto
            346 callgsubr
            -54 30 hlineto
            60 -50 50 -60 vhcurveto
            -30 54 hlineto
            346 callgsubr
            return
          </CharString>
          <CharString index="493">
            hlineto
            25 19 16 24 -10 hvcurveto
            -198 500 198 500 rlineto
            24 10 -19 16 -25 hhcurveto
            return
          </CharString>
          <CharString index="494">
            hlineto
            324 callgsubr
            -54 -30 vlineto
            -60 -50 -50 -60 hvcurveto
            -30 -54 vlineto
            324 callgsubr
            return
          </CharString>
          <CharString index="495">
            82 122 vhcurveto
            return
          </CharString>
          <CharString index="496">
            vlineto
            -81 -44 -54 return
          </CharString>
          <CharString index="497">
            64 56 71 9 70 183 65 hstemhm
            36 414 callgsubr
            hintmask 11011011
            289 return
          </CharString>
          <CharString index="498">
            -5 61 -56 90 -24 79 78 79 10 61 -26 61 10 79 78 79 -24 90 -56 61 hstemhm
            return
          </CharString>
          <CharString index="499">
            -25 16 -19 24 10 vhcurveto
            500 198 500 -198 rlineto
            24 -10 16 19 25 vvcurveto
            return
          </CharString>
          <CharString index="500">
            66 hstemhm
            38 65 -12 79 9 80 3 78 8 77 return
          </CharString>
          <CharString index="501">
            104 21 -0.5 20.5 return
          </CharString>
          <CharString index="502">
            277 callsubr
            -39 75 return
          </CharString>
          <CharString index="503">
            529 callsubr
            hstemhm
            return
          </CharString>
          <CharString index="504">
            hvcurveto
            103 callsubr
            return
          </CharString>
          <CharString index="505">
            266 callgsubr
            93 112 return
          </CharString>
          <CharString index="506">
            vlineto
            -25 14 -92 callgsubr
            return
          </CharString>
          <CharString index="507">
            vlineto
            -27 -7 -22 -40 vhcurveto
            return
          </CharString>
          <CharString index="508">
            804 189 rmoveto
            return
          </CharString>
          <CharString index="509">
            506 callgsubr
            76 return
          </CharString>
          <CharString index="510">
            225 callgsubr
            -217 76 10 403 callgsubr
            10 73 hintmask 10110010
            217 return
          </CharString>
          <CharString index="511">
            372 90 rmoveto
            -318 10 hlineto
            hintmask 1111011010010000
            155 520 -155 10 hlineto
            return
          </CharString>
          <CharString index="512">
            0 90 10 87 34 85 -29 86 -47 85 -29 39 -38 79 81 87 10 90 hstemhm
            return
          </CharString>
          <CharString index="513">
            273 rmoveto
            95 13 60 41 112 vvcurveto
            105 vlineto
            114 -77 62 -130 vhcurveto
            return
          </CharString>
          <CharString index="514">
            -269 hlineto
            -46 -48 18 73 hvcurveto
            114 vlineto
            41 26 9 31 4 vhcurveto
            endchar
          </CharString>
          <CharString index="515">
            hintmask 1011101101000000
            581 -88 callgsubr
            return
          </CharString>
          <CharString index="516">
            90 142 90 9 81 128 80 10 90 return
          </CharString>
          <CharString index="517">
            91 callsubr
            64 110 return
          </CharString>
          <CharString index="518">
            89 455 callgsubr
            return
          </CharString>
          <CharString index="519">
            -290 278 callsubr
            50 90 return
          </CharString>
          <CharString index="520">
            295 callgsubr
            167 -10 hlineto
            return
          </CharString>
          <CharString index="521">
            54 80 vvcurveto
            508 callgsubr
            return
          </CharString>
          <CharString index="522">
            90 10 93 437 90 hstemhm
            return
          </CharString>
          <CharString index="523">
            90 hstemhm
            200 110 10 return
          </CharString>
          <CharString index="524">
            -11 -25 hvcurveto
            -423 vlineto
            -27 return
          </CharString>
          <CharString index="525">
            vlineto
            419 callgsubr
            return
          </CharString>
          <CharString index="526">
            -15 90 -65 108 return
          </CharString>
          <CharString index="527">
            149 165 vlineto
            return
          </CharString>
          <CharString index="528">
            -500 -10 vlineto
            return
          </CharString>
          <CharString index="529">
            161 callgsubr
            hintmask 000000110000110000000000
            141 return
          </CharString>
          <CharString index="530">
            -298 -86 rlineto
            -28 -8 -22 -12 -38 vvcurveto
            -72 vlineto
            -38 22 -15 28 -8 vhcurveto
            return
          </CharString>
          <CharString index="531">
            383 callsubr
            -121 hvcurveto
            -312 44 callsubr
            return
          </CharString>
          <CharString index="532">
            580 720 -93 callsubr
            return
          </CharString>
          <CharString index="533">
            181 callsubr
            -59 return
          </CharString>
          <CharString index="534">
            -46 -380 rmoveto
            -24 -6 12 -12 25 hhcurveto
            105 hlineto
            25 10 12 24 6 hvcurveto
            return
          </CharString>
          <CharString index="535">
            121 -107 callgsubr
            -313 62 callsubr
            return
          </CharString>
          <CharString index="536">
            90 -90 262 220 callsubr
            169 93 10 90 532 callgsubr
            return
          </CharString>
          <CharString index="537">
            105 10 105 43 42 10 60 hstemhm
            return
          </CharString>
          <CharString index="538">
            679 438 callsubr
            return
          </CharString>
          <CharString index="539">
            109 -46 97 54 97 -37 107 return
          </CharString>
          <CharString index="540">
            -205 -94 callsubr
            return
          </CharString>
          <CharString index="541">
            47 10 38 37 88 10 89 hstemhm
            return
          </CharString>
          <CharString index="542">
            -490 367 187 10 vlineto
            return
          </CharString>
          <CharString index="543">
            rlineto
            -106 callsubr
            return
          </CharString>
          <CharString index="544">
            350 callsubr
            200 return
          </CharString>
          <CharString index="545">
            189 rmoveto
            341 vlineto
            return
          </CharString>
          <CharString index="546">
            vlineto
            25 11 10 26 hvcurveto
            return
          </CharString>
          <CharString index="547">
            hhcurveto
            5 hlineto
            11 return
          </CharString>
          <CharString index="548">
            90 rmoveto
            540 return
          </CharString>
          <CharString index="549">
            hlineto
            459 callsubr
            27 vlineto
            16 6 13 32 vhcurveto
            hintmask 010100101100010100000000
            return
          </CharString>
          <CharString index="550">
            88 10 88 114 90 hstemhm
            70 90 109 93 10 93 109 90 return
          </CharString>
          <CharString index="551">
            99 -30 rlineto
            37 -11 25 -13 -47 vvcurveto
            -74 vlineto
            -47 -25 -14 -36 -10 vhcurveto
            return
          </CharString>
          <CharString index="552">
            -100 29 rlineto
            -36 10 -25 14 47 vvcurveto
            74 vlineto
            47 25 13 37 11 vhcurveto
            return
          </CharString>
          <CharString index="553">
            151 -28 callsubr
            40 -12 50 -27 70 vhcurveto
            return
          </CharString>
          <CharString index="554">
            48 8 rlineto
            25 4 11 6 26 vvcurveto
            27 vlineto
            26 -11 14 -25 -4 vhcurveto
            return
          </CharString>
          <CharString index="555">
            -20 callgsubr
            hintmask 0000100001000000
            325 callsubr
          </CharString>
          <CharString index="556">
            90 0 478 callsubr
            return
          </CharString>
          <CharString index="557">
            131 callsubr
            40 333 callgsubr
            return
          </CharString>
          <CharString index="558">
            226 callsubr
            91 -7 109 return
          </CharString>
          <CharString index="559">
            -324 -218 rlineto
            -18 -11 -12 -12 -20 vvcurveto
            -20 12 -12 18 -10 vhcurveto
            return
          </CharString>
          <CharString index="560">
            -123 -76 callgsubr
            return
          </CharString>
          <CharString index="561">
            -21 callgsubr
            366 callgsubr
            return
          </CharString>
          <CharString index="562">
            344 callsubr
            126 hlineto
            return
          </CharString>
          <CharString index="563">
            vmoveto
            486 callgsubr
            return
          </CharString>
          <CharString index="564">
            90 343 callsubr
            return
          </CharString>
          <CharString index="565">
            hstemhm
            196 109 -5 90 -75 109 return
          </CharString>
          <CharString index="566">
            -32 -6 14 16 hvcurveto
            return
          </CharString>
          <CharString index="567">
            -205 77 10 78 return
          </CharString>
          <CharString index="568">
            0 90 500 90 return
          </CharString>
          <CharString index="569">
            -15 93 10 93 return
          </CharString>
          <CharString index="570">
            -60 callgsubr
            hintmask 11111111
            return
          </CharString>
          <CharString index="571">
            -107 callgsubr
            hintmask 11101100
            107 callsubr
            return
          </CharString>
          <CharString index="572">
            hlineto
            32 6 -14 -16 hvcurveto
            -15 vlineto
            -16 -6 -14 -32 vhcurveto
            hintmask 1011010110010000
            return
          </CharString>
          <CharString index="573">
            667 rmoveto
            50 7 31 21 59 vvcurveto
            64 vlineto
            67 -40 35 -68 vhcurveto
            return
          </CharString>
          <CharString index="574">
            -317 -223 -223 -317 -317 223 -223 317 return
          </CharString>
          <CharString index="575">
            -3 0 169 callsubr
            return
          </CharString>
          <CharString index="576">
            131 callsubr
            40 187 hstemhm
            return
          </CharString>
          <CharString index="577">
            293 354 callgsubr
            return
          </CharString>
          <CharString index="578">
            -184 hlineto
            -25 -11 -10 -26 hvcurveto
            526 callgsubr
            return
          </CharString>
          <CharString index="579">
            -183 hlineto
            -26 -10 -10 -26 hvcurveto
            -131 vlineto
            -25 10 -11 26 vhcurveto
            return
          </CharString>
          <CharString index="580">
            20 hstemhm
            -79 19 20 1003 -870 20 860 20 170 18 return
          </CharString>
          <CharString index="581">
            -81 -29 -54 -102 vhcurveto
            endchar
          </CharString>
          <CharString index="582">
            -417 vlineto
            -75 return
          </CharString>
          <CharString index="583">
            vlineto
            hintmask 1010011001010000
            -99 -17 rlineto
            10 572 callsubr
            99 17 rlineto
            return
          </CharString>
          <CharString index="584">
            40 rmoveto
            -93 callgsubr
            return
          </CharString>
          <CharString index="585">
            316 callgsubr
            69 108 return
          </CharString>
          <CharString index="586">
            198 -500 -198 -500 rlineto
            -24 -10 19 -16 25 hhcurveto
            return
          </CharString>
          <CharString index="587">
            23 hlineto
            23 6 -11 -25 hvcurveto
            -285 vlineto
            -25 -6 -11 -23 vhcurveto
            return
          </CharString>
          <CharString index="588">
            -23 hlineto
            -23 -6 -97 callgsubr
            285 vlineto
            25 6 11 23 vhcurveto
            return
          </CharString>
          <CharString index="589">
            -500 -198 -500 198 rlineto
            -24 10 -16 -19 -25 vvcurveto
            return
          </CharString>
          <CharString index="590">
            -15 82 10 83 126 78 10 69 117 82 10 83 hstemhm
            return
          </CharString>
          <CharString index="591" raw="1">
            201d1331 080b  
          </CharString>
          <CharString index="592">
            -107 callgsubr
            hintmask 1011101001000000
            return
          </CharString>
          <CharString index="593">
            vhcurveto
            201 -105 callsubr
            return
          </CharString>
          <CharString index="594">
            416 callsubr
            109 return
          </CharString>
          <CharString index="595">
            97 10 96 98 96 10 96 49 90 return
          </CharString>
          <CharString index="596">
            146 callgsubr
            hintmask 10011001
            return
          </CharString>
          <CharString index="597">
            109 3 90 -83 109 return
          </CharString>
          <CharString index="598">
            -11 59 -48 90 -34 59 87 return
          </CharString>
          <CharString index="599">
            70 callsubr
            -30 107 return
          </CharString>
          <CharString index="600">
            0 80 -80 203 -80 80 return
          </CharString>
          <CharString index="601">
            93 10 90 hstemhm
            53 90 return
          </CharString>
          <CharString index="602">
            108 155 108 return
          </CharString>
          <CharString index="603">
            -530 309 -10 vlineto
            return
          </CharString>
          <CharString index="604">
            42 0 90 10 89 return
          </CharString>
          <CharString index="605">
            -7 callgsubr
            164 146 callgsubr
            hintmask 11011101
            return
          </CharString>
          <CharString index="606">
            228 callsubr
            384 callgsubr
            return
          </CharString>
          <CharString index="607">
            533 callgsubr
            33 91 callsubr
            return
          </CharString>
          <CharString index="608">
            -107 callsubr
            -119 -104 callgsubr
            return
          </CharString>
          <CharString index="609">
            345 callsubr
            74 vlineto
            72 -22 54 -118 vhcurveto
            return
          </CharString>
          <CharString index="610">
            -126 90 132.5 71.5 hstem
            return
          </CharString>
          <CharString index="611">
            384 callgsubr
            -31 90 -49 110 177 91 -61 91 return
          </CharString>
          <CharString index="612">
            hintmask 010000000000000010000000
            return
          </CharString>
          <CharString index="613">
            402 -10 hlineto
            return
          </CharString>
          <CharString index="614">
            74 -49 110 return
          </CharString>
          <CharString index="615">
            hlineto
            hintmask 010100101100010010000000
            90 10 vlineto
            hintmask 010100110100011010000000
            -90 return
          </CharString>
          <CharString index="616">
            92 callsubr
            137 103 10 104 return
          </CharString>
          <CharString index="617">
            376 callgsubr
            151 90 10 89 return
          </CharString>
          <CharString index="618">
            rlineto
            19 -12 -13 12 -21 hhcurveto
            -22 -13 -12 -19 -12 hvcurveto
            return
          </CharString>
          <CharString index="619">
            hlineto
            -9 -51 567 callgsubr
            111 hlineto
            return
          </CharString>
          <CharString index="620">
            63 69 21 329 21 1 21 4 21 168 21 return
          </CharString>
          <CharString index="621">
            0 90 10 89 85 90 10 90 65 597 callgsubr
            return
          </CharString>
          <CharString index="622">
            161 callsubr
            40 return
          </CharString>
          <CharString index="623">
            rlineto
            -19 12 13 -12 21 hhcurveto
            22 13 12 19 12 hvcurveto
            return
          </CharString>
          <CharString index="624">
            hlineto
            -98 -23 -40 -52 hvcurveto
            -68 vlineto
            -48 10 -43 101 vhcurveto
            return
          </CharString>
          <CharString index="625">
            21 168 21 4 21 1 21 329 21 69 63 return
          </CharString>
          <CharString index="626">
            175 callsubr
            332 callsubr
          </CharString>
          <CharString index="627" raw="1">
            e895e5b3 f7e11d0b  
          </CharString>
          <CharString index="628">
            -323 -107 callsubr
            return
          </CharString>
          <CharString index="629">
            -849 -94 callsubr
            return
          </CharString>
          <CharString index="630">
            43 10 43 hstemhm
            60 45 10 45 return
          </CharString>
          <CharString index="631">
            -82 -590 535 callgsubr
            return
          </CharString>
          <CharString index="632">
            93 0 90 449 93 10 93 return
          </CharString>
          <CharString index="633">
            vlineto
            -75 40 -50 462 callgsubr
            return
          </CharString>
          <CharString index="634">
            -306 -107 callsubr
            return
          </CharString>
          <CharString index="635">
            90 hstemhm
            69 237 callgsubr
            return
          </CharString>
          <CharString index="636">
            90 10 89 340 91 10 90 return
          </CharString>
          <CharString index="637">
            -54 rmoveto
            hintmask 0010000000110000
            return
          </CharString>
          <CharString index="638">
            -302 266 callsubr
          </CharString>
          <CharString index="639">
            108 104 109 return
          </CharString>
          <CharString index="640">
            181 -371 vlineto
            return
          </CharString>
          <CharString index="641">
            70 10 49 75 70 return
          </CharString>
          <CharString index="642">
            90 -69 91 -31 90 return
          </CharString>
          <CharString index="643">
            vlineto
            8 6 4 6 return
          </CharString>
          <CharString index="644">
            -55 -83 -121 return
          </CharString>
          <CharString index="645">
            hlineto
            -26 -16 -8 return
          </CharString>
          <CharString index="646">
            hvcurveto
            hintmask 11101000
            226 -20 vlineto
            hintmask 10101000
            -226 vlineto
            return
          </CharString>
          <CharString index="647">
            91 10 110 41 90 28 91 10 100 51 80 return
          </CharString>
          <CharString index="648">
            hstemhm
            64 107 -8 90 -72 107 165 109 -71 return
          </CharString>
          <CharString index="649">
            0 396 callsubr
            200 return
          </CharString>
          <CharString index="650">
            340 callgsubr
            hstemhm
            33 76 return
          </CharString>
          <CharString index="651">
            80 51 100 10 91 28 90 41 110 10 91 return
          </CharString>
          <CharString index="652">
            -20 210 10 89 142 89 10 210 hstemhm
            return
          </CharString>
          <CharString index="653">
            561 callsubr
            -64 return
          </CharString>
          <CharString index="654">
            -54 rmoveto
            hintmask 001000000001001000000000
            return
          </CharString>
          <CharString index="655">
            hstemhm
            151 90 10 89 return
          </CharString>
          <CharString index="656">
            -490 381 -10 vlineto
            return
          </CharString>
          <CharString index="657">
            hstemhm
            200 107 10 107 return
          </CharString>
          <CharString index="658">
            -40 880 rmoveto
            return
          </CharString>
          <CharString index="659">
            -377 vlineto
            -75 return
          </CharString>
          <CharString index="660">
            91 10 92 hstemhm
            return
          </CharString>
          <CharString index="661">
            13 vvcurveto
            14 vlineto
            19 -10 4 -11 vhcurveto
            hintmask 10110110
            return
          </CharString>
          <CharString index="662">
            269 callsubr
            578 callgsubr
            10 109 return
          </CharString>
          <CharString index="663">
            217 callgsubr
            141 90 return
          </CharString>
          <CharString index="664">
            143 78 10 78 285 78 10 78 hstemhm
            return
          </CharString>
          <CharString index="665">
            0 586 callsubr
            return
          </CharString>
          <CharString index="666">
            vlineto
            26 -12 16 -24 7 vhcurveto
            -95 27 rlineto
            -14 return
          </CharString>
          <CharString index="667">
            hlineto
            18 125 rlineto
            10 hlineto
            -18 -125 rlineto
            return
          </CharString>
          <CharString index="668">
            hstemhm
            201 103 -13 90 -67 596 callgsubr
            return
          </CharString>
          <CharString index="669">
            91 callsubr
            58 108 return
          </CharString>
          <CharString index="670">
            hlineto
            -30 vmoveto
            hintmask 11111000
            -1020 return
          </CharString>
          <CharString index="671">
            0 90 -90 275 -90 90 return
          </CharString>
          <CharString index="672">
            -146 70 10 60 46 90 return
          </CharString>
          <CharString index="673">
            vlineto
            -59 -19 -41 -112 vhcurveto
            return
          </CharString>
          <CharString index="674">
            -306 -90 90 720 90 return
          </CharString>
          <CharString index="675">
            -136 91 136 91 rlineto
            return
          </CharString>
          <CharString index="676">
            -24 hlineto
            77 -63 63 -77 vhcurveto
            return
          </CharString>
          <CharString index="677">
            108 -41 105 -54 109 return
          </CharString>
          <CharString index="678">
            -95 vlineto
            -373 hmoveto
            95 10 return
          </CharString>
          <CharString index="679">
            vlineto
            hintmask 1010010101010000
            return
          </CharString>
          <CharString index="680">
            vlineto
            hintmask 1001011000100000
            return
          </CharString>
          <CharString index="681">
            hstemhm
            69 109 10 return
          </CharString>
          <CharString index="682">
            161 -368 vlineto
            return
          </CharString>
          <CharString index="683">
            10 94 115 90 return
          </CharString>
          <CharString index="684">
            hstemhm
            199 106 return
          </CharString>
          <CharString index="685">
            rlineto
            -137 hlineto
            return
          </CharString>
          <CharString index="686">
            -181 -10 vlineto
            return
          </CharString>
          <CharString index="687">
            hintmask 10101001
            -62 callsubr
            return
          </CharString>
          <CharString index="688">
            hstemhm
            100 81 callgsubr
            hintmask 10101000
            return
          </CharString>
          <CharString index="689">
            -121 -104 callgsubr
            144 return
          </CharString>
          <CharString index="690">
            399 callgsubr
            hstemhm
            return
          </CharString>
          <CharString index="691">
            91 callsubr
            54 106 return
          </CharString>
          <CharString index="692">
            108 438 callgsubr
            -88 95 return
          </CharString>
          <CharString index="693">
            90 175 89 10 90 176 90 hstemhm
            return
          </CharString>
          <CharString index="694">
            hlineto
            87 51 27 86 vhcurveto
            136 -10 hlineto
            return
          </CharString>
          <CharString index="695">
            10 276 callgsubr
            return
          </CharString>
          <CharString index="696">
            vlineto
            -77 -34 35 70 hvcurveto
            258 10 vlineto
            return
          </CharString>
          <CharString index="697">
            -99 hhcurveto
            -74 hlineto
            -99 -32 -44 -83 -24 hvcurveto
            return
          </CharString>
          <CharString index="698">
            108 -48 70 callsubr
            -45 103 return
          </CharString>
          <CharString index="699">
            -1020 1020 hlineto
            endchar
          </CharString>
          <CharString index="700">
            90 238 91 return
          </CharString>
          <CharString index="701">
            0 90 10 93 return
          </CharString>
          <CharString index="702">
            594 36 rmoveto
            return
          </CharString>
          <CharString index="703">
            122 -59 83 return
          </CharString>
          <CharString index="704">
            90 195 90 return
          </CharString>
          <CharString index="705">
            rlineto
            11 hlineto
            endchar
          </CharString>
        <CharString name=".notdef">
          -40 20 10 20 700 20 10 20 hstemhm
          100 20 10 20 700 20 10 20 hintmask 11011010
          900 -4 rmoveto
          728 -107 callgsubr
          -728 -107 callsubr
          -728 -104 callgsubr
          728 -105 callsubr
          -780 -16 rmoveto
          760 vlineto
          hintmask 11011011
          760 -760 hlineto
          hintmask 01111110
          -10 10 rmoveto
          740 -740 -740 vlineto
          720 20 rmoveto
          hintmask 01111010
          -700 700 700 hlineto
          endchar
        </CharString>
        <CharString name="A">
          77 0 429 callsubr
          177 110 10 106 hintmask 1001111111000000
          -105 callgsubr
          hintmask 0100011111000000
          169 callgsubr
          hintmask 1000011101000000
          234 callsubr
          hintmask 1000011001000000
          -100 callgsubr
          vlineto
          hintmask 0100011101000000
          249 callsubr
          hintmask 0010011111000000
          151 callsubr
          hintmask 0100011011000000
          4 callgsubr
          hintmask 0100011001000000
          151 -102 callgsubr
          hintmask 0100011101000000
          166 callsubr
        </CharString>
        <CharString name="A.s_v">
          215 callsubr
          hstemhm
          201 103 10 596 callgsubr
          10 110 hintmask 1001111111000000
          314 283 -40 callsubr
          hintmask 0100011111000000
          575 callgsubr
          hintmask 1000011101000000
          -152 -10 vlineto
          hintmask 1000011001000000
          -21 callsubr
          vlineto
          hintmask 0100011101000000
          -273 -54 rmoveto
          hintmask 0010011111000000
          534 callgsubr
          hintmask 0100011011000000
          331 callsubr
          hintmask 0100011001000000
          151 -57 callsubr
          hintmask 0100011101000000
          166 callsubr
        </CharString>
        <CharString name="A.salt">
          149 callsubr
          93 578 callgsubr
          10 99 165 107 10 107 hintmask 1001111111000000
          184 507 -26 callsubr
          hintmask 0100011111000000
          533 callsubr
          hintmask 1000011101000000
          579 callsubr
          hintmask 1000011001000000
          105 callsubr
          vlineto
          hintmask 0100011101000000
          -282 -54 rmoveto
          hintmask 0010011111000000
          420 callsubr
          hintmask 0100011011000000
          -149 -104 callgsubr
          hintmask 0100011001000000
          152 30 callgsubr
          hintmask 0100011101000000
          166 callsubr
        </CharString>
        <CharString name="A.salt_s_v">
          0 164 callsubr
          577 callsubr
          10 103 159 106 10 108 hintmask 1001111111000000
          315 467 -8 callsubr
          hintmask 0100011111000000
          575 callsubr
          hintmask 1000011101000000
          595 callgsubr
          hintmask 1000011001000000
          96 callgsubr
          hintmask 0100011101000000
          -275 -54 rmoveto
          hintmask 0010011111000000
          536 callgsubr
          hintmask 0100011011000000
          -129 -104 callgsubr
          hintmask 0100011001000000
          152 29 callsubr
          hintmask 0100011101000000
          166 callsubr
        </CharString>
        <CharString name="A.salt_v">
          0 90 -90 271 -85 85 10 88 176 87 10 94 hstemhm
          200 105 10 104 157 107 10 107 hintmask 1001111111000000
          315 507 rmoveto
          -226 368 553 callgsubr
          -37 50 -147 317 callsubr
          104 -9 rmoveto
          27 8 20 71 70 8 -20 -27 vhcurveto
          -129 -157 vlineto
          264 -279 rmoveto
          hintmask 0100011111000000
          181 -368 vlineto
          hintmask 1000011101000000
          579 callsubr
          hintmask 1000011001000000
          417 vlineto
          81 37 54 157 155 39 -54 -81 vhcurveto
          -417 vlineto
          hintmask 0100011101000000
          -274 -53 rmoveto
          hintmask 0010011111000000
          149 157 vlineto
          hintmask 0100011011000000
          -149 vlineto
          -25 11 -12 25 vhcurveto
          hintmask 0100011001000000
          152 hlineto
          25 11 12 25 hvcurveto
          495 vlineto
          121 -52 83 -249 -248 -51 -83 -121 vhcurveto
          -495 vlineto
          -25 11 -12 25 vhcurveto
          hintmask 0100011101000000
          147 hlineto
          25 11 12 25 hvcurveto
          endchar
        </CharString>
        <CharString name="A.v">
          0 90 -90 262 220 callsubr
          169 93 10 90 hstemhm
          199 105 10 104 157 146 callgsubr
          hintmask 1001111111000000
          314 303 rmoveto
          -31 369 31 vlineto
          -80 callgsubr
          -77 -59 callsubr
          59 callgsubr
          161 207 120 callgsubr
          -152 578 callsubr
          255 -268 rmoveto
          hintmask 0100011111000000
          172 -369 vlineto
          hintmask 1000011101000000
          234 callsubr
          hintmask 1000011001000000
          213 vlineto
          37 6 31 11 29 vhcurveto
          64 164 rlineto
          37 15 12 29 46 hhcurveto
          77 -89 callgsubr
          vlineto
          hintmask 0100011101000000
          -275 -54 rmoveto
          hintmask 0010011111000000
          140 157 vlineto
          hintmask 0100011011000000
          -140 399 callsubr
          hintmask 0100011001000000
          151 -28 callsubr
          69 -10 15 -29 76 vhcurveto
          -87 227 rlineto
          25 -9 -15 8 -26 hhcurveto
          -259 538 callsubr
          -25 -9 hvcurveto
          -77 -227 rlineto
          -29 -76 -10 -15 -69 vvcurveto
          -264 vlineto
          -25 10 -11 26 vhcurveto
          hintmask 0100011101000000
          166 callsubr
        </CharString>
        <CharString name="AE">
          1 callgsubr
        </CharString>
        <CharString name="AE.salt">
          360 0 89 10 90 -4 86 4 83 -77 87 0 86 288 callsubr
          hstemhm
          64 106 10 103 165 110 10 107 119 89 -8 89 hintmask 1010101111100000
          180 495 rmoveto
          -214 378 339 -221 vlineto
          -125 -32 -50 -75 hvcurveto
          103 -6 rmoveto
          27 12 20 71 vhcurveto
          82 -168 -165 hlineto
          275 -279 rmoveto
          hintmask 1010010111100000
          182 -378 -182 -10 vlineto
          hintmask 1010010110100100
          406 vlineto
          81 34 54 133 vhcurveto
          537 -10 hlineto
          hintmask 1010011110111000
          -306 -252 226 -10 hlineto
          hintmask 1100100110110100
          -226 -259 307 -10 hlineto
          hintmask 1010010111100000
          -592 -53 rmoveto
          149 165 -149 -104 callgsubr
          hintmask 1010010110110000
          444 -105 callsubr
          hintmask 1101010110110000
          -89 callsubr
          -253 86 172 -105 callsubr
          hintmask 1010011110110000
          107 -73 callsubr
          -172 77 253 -105 callsubr
          hintmask 1010010110110000
          -89 callsubr
          -561 hlineto
          -248 537 callsubr
          hvcurveto
          -480 -104 callgsubr
          hintmask 1010010111100000
          166 callsubr
        </CharString>
        <CharString name="AE.salt_v">
          0 90 10 89 -4 86 4 83 -77 87 0 86 82 84 10 90 hstemhm
          179 488 callsubr
          hintmask 1010101111101000
          286 495 rmoveto
          -214 290 339 -133 vlineto
          -125 -32 -50 -75 hvcurveto
          96 -6 rmoveto
          27 9 20 40 vhcurveto
          49 -168 -98 hlineto
          194 -278 rmoveto
          hintmask 1010010111101000
          181 -290 -182 -10 vlineto
          hintmask 1010010110101000
          406 vlineto
          81 34 54 133 vhcurveto
          288 -10 hlineto
          hintmask 1010011110111000
          -145 -252 144 -10 hlineto
          hintmask 1100100110111000
          -144 -258 145 -10 hlineto
          hintmask 1010010111101000
          -349 -54 rmoveto
          149 98 -149 -104 callgsubr
          hintmask 1010010110111000
          269 -105 callsubr
          hintmask 1101010110111000
          -89 callsubr
          -103 86 102 -105 callsubr
          hintmask 1010011110111000
          107 -73 callsubr
          -102 77 103 -105 callsubr
          hintmask 1010010110111000
          -89 callsubr
          -356 hlineto
          -195 537 callsubr
          hvcurveto
          -480 -104 callgsubr
          hintmask 1010010111101000
          131 365 callsubr
        </CharString>
        <CharString name="AE.v">
          0 90 10 89 -13 87 10 85 12 84 288 callsubr
          hstemhm
          169 488 callsubr
          hintmask 1011111111010000
          276 291 rmoveto
          -18 290 347 -154 vlineto
          -20 -9 -10 -28 -12 hvcurveto
          -84 -203 rlineto
          -11 -26 0 -25 -37 vvcurveto
          166 223 566 callgsubr
          9 -173 -87 hlineto
          hintmask 1010101101010000
          -117 -268 rmoveto
          201 vlineto
          39 0 26 11 27 vhcurveto
          84 203 rlineto
          35 14 13 9 24 hhcurveto
          309 -10 hlineto
          hintmask 1010111101110000
          -145 -250 144 -10 hlineto
          hintmask 1101101101110000
          -144 -260 145 -10 hlineto
          hintmask 1010101111010000
          -155 173 -290 -173 hlineto
          96 -54 rmoveto
          140 98 -140 -104 callgsubr
          hintmask 1010101101110000
          269 -105 callsubr
          hintmask 1101101101110000
          -89 callsubr
          -103 86 102 -105 callsubr
          hintmask 1010111101110000
          107 -73 callsubr
          -102 77 103 -105 callsubr
          hintmask 1010101101110000
          -89 callsubr
          -420 hlineto
          -34 -17 -10 -31 -11 hvcurveto
          -95 -239 rlineto
          -19 -50 -10 -41 -59 vvcurveto
          -254 -104 callgsubr
          hintmask 1010101111010000
          131 365 callsubr
        </CharString>
        <CharString name="Aacute">
          -49 callgsubr
          213 callgsubr
          -76 90 -4 106 hintmask 1001100011000000
          -105 callgsubr
          hintmask 0100000011000000
          169 callgsubr
          hintmask 1000000010000000
          234 callsubr
          hintmask 1000011000010000
          -100 callgsubr
          vlineto
          hintmask 0100000010000000
          -297 530 callgsubr
          151 callsubr
          hintmask 0100000001000000
          4 callgsubr
          hintmask 0100011000010000
          151 -102 callgsubr
          hintmask 0100000010000000
          147 -105 callsubr
          hintmask 0000010100100000
          265 760 -101 callsubr
          endchar
        </CharString>
        <CharString name="Aacute.salt">
          149 callsubr
          93 578 callgsubr
          -6 90 -74 99 165 107 -58 90 -22 67 callsubr
          268 760 -101 callsubr
          endchar
        </CharString>
</ttFont>
